<svg width="34" height="34" fill="none" xmlns="http://www.w3.org/2000/svg"><path d="M11.975 3.188H6.12a3.188 3.188 0 00-2.932 3.431l8.787-3.431zm0 0a2.125 2.125 0 011.976 1.338l-1.976-1.338zm15.582 25.574a1.139 1.139 0 001.206-1.069h0v-5.728l-.047-.02-4.006-1.604-.046-.018-.035.034-3.023 3.003-.474-.06c-4.594-.575-7.2-3.158-8.66-5.61a14.466 14.466 0 01-1.434-3.316c-.13-.447-.215-.818-.267-1.08a7.811 7.811 0 01-.067-.391l-.003-.024v-.002h0l-.001-.009-.06-.474 2.992-3.023.035-.035-.018-.046-1.594-4.005-.019-.048h-5.66a1.137 1.137 0 00-1.138 1.138v.085h0v.006c.245 3.15 1.153 8.457 4.336 13.11 3.186 4.657 8.647 8.654 17.983 9.186zm0 0s0 0 0 0l.005-.075-.005.075s0 0 0 0zM4.955 3.591a3.113 3.113 0 011.168-.329h5.852a2.05 2.05 0 011.906 1.292h0l1.615 3.974s0 0 0 0a2.05 2.05 0 01-.45 2.214h0l-2.264 2.285-.027.027.006.038a10.031 10.031 0 008.115 8.136l.038.007.028-.027 2.305-2.284s0 0 0 0a2.05 2.05 0 012.224-.42h.002l4.004 1.604s0 0 0 0a2.05 2.05 0 011.26 1.907v5.61a3.113 3.113 0 01-3.112 3.113h-.178c-10.413-.6-16.352-5.29-19.742-10.497C4.312 15.03 3.47 9.296 3.263 6.614h0A3.112 3.112 0 014.955 3.59z" fill="#35353E" stroke="#F4F5F9" stroke-width=".15"/></svg>