<svg width="24" height="24" fill="none" xmlns="http://www.w3.org/2000/svg"><g clip-path="url(#clip0_711_18433)" fill="#000"><path d="M18.79 19.363a9.429 9.429 0 10-13.616 0l-2.45 3.266a.857.857 0 001.371 1.028l2.375-3.166a9.36 9.36 0 0011.023 0l2.374 3.166a.857.857 0 101.372-1.028l-2.45-3.266zm-5.951-6.506c0 .185-.06.366-.172.514L10.096 16.8a.857.857 0 01-1.372-1.029l2.4-3.2V7.715a.857.857 0 011.715 0v5.143z"/><path d="M7.297 1.254a4.286 4.286 0 00-6.061 6.06.857.857 0 001.212 0l4.85-4.847a.857.857 0 000-1.213zm15.429.001a4.286 4.286 0 00-6.06 0 .857.857 0 000 1.212l4.848 4.848a.857.857 0 001.212 0 4.286 4.286 0 000-6.06z"/></g><defs><clipPath id="clip0_711_18433"><path fill="#fff" d="M0 0h24v24H0z"/></clipPath></defs></svg>