<svg width="20" height="20" fill="none" xmlns="http://www.w3.org/2000/svg"><g clip-path="url(#clip0_778_16627)" fill="#000"><path d="M8.329 12.254a3.004 3.004 0 003.342 0l8.196-5.464c.045-.03.09-.062.133-.095v8.953a1.84 1.84 0 01-1.841 1.842H1.84A1.84 1.84 0 010 15.648V6.695c.044.033.088.065.133.095l8.196 5.464z"/><path d="M19.217 5.815l-8.196 5.464a1.84 1.84 0 01-2.042 0L.783 5.815A1.755 1.755 0 010 4.35c0-1.015.826-1.84 1.84-1.84h16.32c1.014 0 1.84.825 1.84 1.84 0 .59-.293 1.137-.783 1.464z"/></g><defs><clipPath id="clip0_778_16627"><path fill="#fff" transform="matrix(-1 0 0 1 20 0)" d="M0 0h20v20H0z"/></clipPath></defs></svg>