<svg width="169" height="68" fill="none" xmlns="http://www.w3.org/2000/svg"><g clip-path="url(#clip0_231_3067)"><path fill-rule="evenodd" clip-rule="evenodd" d="M77.168 17.274l2.797.334 2.798-.334-.395 5.777-.122 5.87v6.474l.122 5.898.395 5.565-2.798-.121-2.797.121.395-5.565.091-5.898V28.92l-.09-5.87-.396-5.776zm58.297 4.744c.486 1.236.73 2.726.73 4.469l-.06 2.31c-.041.83-.083 1.794-.123 2.889-.059 1.115-.11 2.362-.151 3.74l-.062 4.834.033 3.254c.019 1.033.08 2.149.18 3.344l-1.398-.121h-2.676l-1.367.121.425-6.293.213-13.197-.334-2.919c-.244-.91-.609-1.702-1.095-2.372-.506-.669-1.176-1.195-2.007-1.58-.83-.406-1.874-.609-3.131-.609-1.501 0-2.777.294-3.832.882-1.035.588-1.844 1.277-2.432 2.068l-.791 1.369-.425 2.067-.213 3.923-.062 6.96.092 4.867.213 4.834-2.706-.121-2.706.121.395-6.963.091-6.994-.031-4.56-.152-2.614-.334-1.581-.576-1.37c-.467-.788-1.187-1.468-2.16-2.037-.973-.567-1.976-.85-3.009-.85-1.359 0-2.535.222-3.529.667a6.064 6.064 0 00-2.493 2.009c-1.277 1.784-1.915 4.296-1.915 7.54v5.29l.09 5.898.428 5.565-2.798-.121-2.829.121.426-5.565.092-5.898V28.92l-.092-5.87-.426-5.776 2.829.334 1.064-.122 1.396-.212-.18 4.986h.122c1.095-1.865 2.422-3.263 3.982-4.196 1.542-.932 3.306-1.398 5.291-1.398 1.034 0 2.048.151 3.04.455a11.6 11.6 0 012.676 1.278 8.764 8.764 0 012.098 1.976 7.07 7.07 0 011.186 2.463h.121c.994-2.008 2.352-3.538 4.076-4.591 1.723-1.055 3.709-1.581 5.959-1.581 1.378 0 2.655.182 3.83.547a8.155 8.155 0 013.011 1.763c.852.791 1.521 1.805 2.006 3.042zm32.748-.669l-.577 2.158h-.488l-1.183-1.643-1.796-1.55-2.25-1.186c-.832-.324-1.755-.486-2.768-.486-1.863 0-3.464.344-4.803 1.033-1.358.69-2.464 1.633-3.314 2.828-.851 1.217-1.471 2.645-1.856 4.288-.405 1.621-.607 3.394-.607 5.32 0 2.129.233 4.004.7 5.626.445 1.601 1.125 2.949 2.036 4.043 1.824 2.19 4.511 3.285 8.059 3.285l2.553-.367 2.523-.91 2.342-1.4 1.915-1.763.303.183-.362 3.072c-1.258.993-2.809 1.844-4.653 2.552a15.839 15.839 0 01-5.746 1.066c-1.785 0-3.579-.264-5.383-.79a13.166 13.166 0 01-4.896-2.616c-1.459-1.217-2.635-2.809-3.526-4.775-.446-.972-.78-2.057-1.005-3.253l-.333-3.891c0-2.696.455-5.028 1.368-6.994.913-1.946 2.108-3.547 3.587-4.804a13.997 13.997 0 015.079-2.796 19.083 19.083 0 015.839-.913c2.288 0 4.337.274 6.141.82 1.804.568 3.101 1.206 3.89 1.916l-.789 1.947z" fill="#35353E"/><path fill-rule="evenodd" clip-rule="evenodd" d="M76.773 6.45c0-.872.314-1.622.941-2.25.63-.63 1.379-.943 2.25-.943a2.97 2.97 0 012.22.943c.629.628.942 1.378.942 2.25 0 .87-.313 1.62-.942 2.25-.608.607-1.347.91-2.22.91a3.125 3.125 0 01-2.25-.91c-.627-.63-.94-1.38-.94-2.25z" fill="#45B5C4"/><path d="M76.954 54.493a21.819 21.819 0 00-.036-.806 3.936 3.936 0 00.791.02c.083-.005.161-.013.231-.02a28.106 28.106 0 00-.049 1.726v.848c0 .346.003.652.012.92.01.268.021.53.037.789a1.83 1.83 0 00-.23-.014h-.562c-.083 0-.16.005-.23.014a28.006 28.006 0 00.05-1.709v-.848c0-.345-.005-.652-.014-.92zm2.771-.29a21.19 21.19 0 01-.02-.516c.117.02.21.03.281.03.07 0 .163-.01.28-.03a350.837 350.837 0 002.705 2.968v-1.149c0-.203 0-.404-.002-.601l-.006-.546c-.004-.166-.006-.31-.012-.43a1.81 1.81 0 00-.023-.242c.117.02.21.03.282.03.07 0 .164-.01.28-.03a89.438 89.438 0 00-.081 1.888c-.01.27-.014.538-.016.801-.002.265-.004.546-.004.846v.748a2.341 2.341 0 00-.498 0 79.107 79.107 0 00-2.725-3.011c-.005.12-.007.241-.01.36l-.002.368v.723c0 .25 0 .461.003.637a15.848 15.848 0 00.023.739c.004.076.007.138.011.184a.85.85 0 00-.15-.014H79.9a3.03 3.03 0 00-.287.014c.007-.033.018-.153.03-.356a48.996 48.996 0 00.079-1.699c.01-.344.016-.672.016-.988 0-.287-.005-.528-.012-.724zm6.39 2.513v.374c0 .121.001.23.003.33l.004.194c.061.004.136.009.225.013.086.003.194.006.323.006.47 0 .84-.16 1.116-.48.274-.32.412-.804.412-1.453 0-.258-.035-.488-.103-.692a1.488 1.488 0 00-.29-.521 1.254 1.254 0 00-.45-.33 1.447 1.447 0 00-.585-.115 5.968 5.968 0 00-.648.03l-.004.194c-.002.1-.003.21-.003.337v2.113zm-.936-2.223a28.141 28.141 0 00-.036-.806 4.311 4.311 0 00.51.03c.137 0 .291-.005.462-.015.17-.01.393-.015.667-.015.358 0 .684.031.976.096a2 2 0 01.758.327c.212.154.375.36.493.62.115.26.174.588.174.982 0 .345-.058.656-.172.937a2.14 2.14 0 01-.468.711 2 2 0 01-.685.454c-.26.104-.538.156-.832.156-.313 0-.579-.003-.8-.008-.219-.003-.41-.006-.573-.006h-.28c-.083 0-.16.005-.23.014a25.312 25.312 0 00.05-1.71v-.847c0-.345-.005-.652-.014-.92zm6.683 3.474a1.6 1.6 0 01-.604-.282 1.339 1.339 0 01-.4-.504 1.756 1.756 0 01-.147-.75c0-.17.002-.317.003-.447l.003-.365c0-.113 0-.22.003-.323.003-.105.003-.213.003-.325 0-.337-.001-.61-.006-.817a9.202 9.202 0 00-.018-.467c.082.007.167.015.255.02a3.68 3.68 0 00.51 0c.089-.005.173-.013.257-.02a13.54 13.54 0 00-.075 1.125c-.01.347-.014.7-.014 1.057 0 .377.029.684.083.916.052.232.135.413.24.54.106.126.236.21.39.251.152.042.332.063.535.063.25 0 .445-.063.587-.187.141-.124.248-.29.32-.498a2.6 2.6 0 00.135-.714c.017-.27.024-.55.024-.84a27.092 27.092 0 00-.05-1.713c.057.007.114.015.169.02a1.347 1.347 0 00.306 0c.05-.005.102-.013.156-.02a8.856 8.856 0 00-.025.366 45.628 45.628 0 00-.047 1.2c-.006.244-.01.5-.01.771 0 .723-.155 1.242-.467 1.555-.312.315-.77.471-1.373.471-.264 0-.513-.028-.743-.083zm5.439-3.977a.667.667 0 00-.469.17.52.52 0 00-.179.394c0 .152.046.277.14.377.094.097.21.185.351.264.142.08.295.154.456.226.162.075.315.163.455.27.14.106.259.234.352.385.094.154.14.346.14.584 0 .207-.038.399-.118.57a1.27 1.27 0 01-.335.443 1.55 1.55 0 01-.52.28c-.204.065-.43.097-.678.097-.224 0-.426-.023-.602-.071a1.145 1.145 0 01-.4-.179c.04-.145.075-.277.103-.399.029-.12.055-.25.075-.392h.12a.802.802 0 00.522.621c.1.034.213.052.339.052.248 0 .432-.063.55-.186a.631.631 0 00.179-.45.544.544 0 00-.139-.386 1.32 1.32 0 00-.342-.265 5.442 5.442 0 00-.449-.224 2.334 2.334 0 01-.449-.265 1.35 1.35 0 01-.343-.385 1.116 1.116 0 01-.137-.581c0-.218.039-.408.115-.574a1.237 1.237 0 01.756-.673 1.61 1.61 0 01.53-.088c.227 0 .423.026.592.082.167.053.312.128.433.223-.038.096-.07.189-.096.278-.029.09-.063.202-.105.34h-.093c-.133-.358-.385-.537-.754-.537zm3.426.382a1.782 1.782 0 00-.015-.218c-.063 0-.14 0-.231.006l-.293.015a7.01 7.01 0 00-.618.06l.024-.138a1.55 1.55 0 00.008-.138c0-.045-.004-.09-.008-.136-.008-.045-.015-.091-.024-.136.14.003.27.008.385.012.113.004.229.007.348.009l.386.006a39.367 39.367 0 001.006 0l.383-.006a10.7 10.7 0 00.34-.01l.357-.011c-.009.045-.015.09-.021.136a.913.913 0 000 .274c.006.046.012.091.021.137a5.562 5.562 0 00-.279-.034c-.105-.01-.207-.018-.31-.026l-.29-.014a4.311 4.311 0 00-.231-.006.46.46 0 00-.007.086c-.005.038-.005.081-.005.132v1.889a22.017 22.017 0 00.051 1.709 1.856 1.856 0 00-.231-.014h-.562c-.084 0-.159.005-.231.014.016-.259.028-.521.038-.789.009-.268.013-.574.013-.92V54.7c0-.12-.002-.23-.004-.329zm5.248.05a.512.512 0 00-.172-.247.668.668 0 00-.3-.108 3.102 3.102 0 00-.44-.025c-.013.565-.018 1.13-.018 1.695.024.005.05.008.072.01.022.002.043.004.064.004.276 0 .485-.075.63-.222.146-.148.219-.372.219-.672 0-.18-.019-.328-.055-.435zm-.93 1.583v.256c0 .346.005.652.012.92.008.268.021.53.038.789a1.833 1.833 0 00-.231-.014h-.561c-.082 0-.16.005-.23.014.016-.259.028-.521.036-.789.008-.268.013-.574.013-.92v-.849a30.918 30.918 0 00-.049-1.725 3.92 3.92 0 00.511.03c.113 0 .24-.005.382-.015a7.854 7.854 0 01.94-.003c.112.007.208.02.29.037a1.1 1.1 0 01.211.064c.06.03.117.06.172.098.124.091.223.205.297.34.071.136.107.296.107.483 0 .304-.082.55-.248.742-.166.192-.406.326-.717.406.199.353.415.705.642 1.056l.685 1.045a2.972 2.972 0 00-.279-.014h-.565a3.03 3.03 0 00-.284.014l-1.115-1.965h-.057zm3.561-1.512a27.455 27.455 0 00-.038-.806 3.99 3.99 0 00.792.02c.084-.005.159-.013.23-.02-.016.269-.028.538-.037.806a31.22 31.22 0 00-.012.92v.848c0 .346.004.652.012.92.009.268.021.53.037.789a1.817 1.817 0 00-.23-.014h-.562c-.083 0-.159.005-.23.014a24.652 24.652 0 00.05-1.71v-.847a28.1 28.1 0 00-.012-.92zm4.034.364a23.678 23.678 0 00-.586 1.485h1.14l-.271-.745c-.09-.243-.184-.489-.283-.74zm2.208 3.113a3.215 3.215 0 00-.285-.014h-.53a2.55 2.55 0 00-.264.014c-.067-.204-.135-.412-.207-.624-.07-.211-.145-.424-.224-.636a22.658 22.658 0 00-.398-.01l-.4-.002-.325.003-.325.009a14.3 14.3 0 00-.422 1.26.845.845 0 00-.147-.014h-.295a1.09 1.09 0 00-.164.014 33.286 33.286 0 00.475-1.099c.098-.24.206-.5.32-.775.115-.276.229-.557.345-.84l.334-.834c.111-.274.211-.53.304-.766l.118.02a.741.741 0 00.237 0l.118-.02c.134.352.276.73.428 1.134a65.975 65.975 0 00.907 2.294c.146.349.279.645.4.886zm1.287-3.477a16.815 16.815 0 00-.035-.806 3.97 3.97 0 00.792.02c.082-.005.16-.013.232-.02a27.625 27.625 0 00-.051 1.726v.848c0 .237.002.465.003.687.003.218.005.41.011.573a12.174 12.174 0 001.425-.082 1.123 1.123 0 00-.023.281c0 .067.002.118.005.156a.373.373 0 00.018.094 22.844 22.844 0 00-1.091-.014h-.988c-.094 0-.164.002-.212.003a1.985 1.985 0 00-.121.01c.017-.258.031-.52.035-.788.011-.268.016-.574.016-.92v-.849c0-.344-.005-.65-.016-.919zm6.538 2.079l-.101 1.398a.85.85 0 00-.149-.014h-.289a.82.82 0 00-.147.014c.133-.716.251-1.427.354-2.133.105-.706.2-1.423.288-2.15.044.008.087.015.128.02a.847.847 0 00.246 0c.041-.005.085-.013.131-.02.112.248.23.501.351.76.123.257.245.514.37.77a50.877 50.877 0 00.718 1.45c.249-.466.498-.952.747-1.463.246-.51.482-1.016.708-1.517.102.02.193.03.266.03.072 0 .158-.01.262-.03.043.356.088.74.135 1.152.046.412.095.814.141 1.208.045.392.09.758.136 1.1.045.34.086.615.125.823a2.336 2.336 0 00-.252-.014h-.509a2.54 2.54 0 00-.262.014 28.367 28.367 0 00-.102-1.39c-.049-.5-.097-.994-.147-1.485h-.013l-.697 1.446c-.23.474-.457.95-.68 1.429a.59.59 0 00-.238 0c-.224-.467-.447-.931-.669-1.398-.223-.465-.453-.937-.689-1.415h-.013c-.066.478-.115.95-.149 1.415zm9.151-1.598a1.65 1.65 0 00-.277-.546 1.216 1.216 0 00-.982-.469c-.21 0-.402.053-.57.154a1.317 1.317 0 00-.426.415 1.982 1.982 0 00-.267.613c-.06.236-.089.487-.089.752 0 .332.034.613.106.842.07.229.165.413.285.552.123.138.261.24.418.303.158.061.325.092.5.092a1.212 1.212 0 00.982-.48c.127-.161.229-.368.305-.616a2.99 2.99 0 00.115-.886 2.4 2.4 0 00-.1-.726zm-3.463-.003a2.2 2.2 0 01.483-.71 2.28 2.28 0 01.755-.483c.295-.115.624-.173.984-.173.333 0 .644.046.932.137.285.091.535.229.746.412.215.182.38.414.501.694.124.281.184.61.184.983a2.155 2.155 0 01-.668 1.58c-.21.201-.461.358-.754.47a2.63 2.63 0 01-.959.17c-.328 0-.636-.04-.926-.121a1.962 1.962 0 01-.754-.394 1.9 1.9 0 01-.508-.694c-.123-.279-.186-.614-.186-1.005 0-.308.057-.597.17-.866zm6.064-.768c-.008-.195-.016-.368-.02-.516.118.02.211.03.282.03.07 0 .164-.01.28-.03.452.501.9.996 1.343 1.483.446.486.898.98 1.363 1.485v-1.149c0-.203-.001-.404-.003-.601l-.007-.546a8.265 8.265 0 00-.013-.43 1.553 1.553 0 00-.021-.242c.118.02.211.03.28.03.071 0 .166-.01.282-.03-.021.377-.036.72-.05 1.025l-.032.863c-.008.27-.013.538-.014.801-.002.265-.003.546-.003.846v.748a2.384 2.384 0 00-.5 0 80.42 80.42 0 00-2.724-3.011c-.005.12-.008.241-.01.36-.003.122-.003.243-.003.368v.723a39.944 39.944 0 00.013 1.08c.004.119.007.22.012.296.004.076.009.138.014.184a.873.873 0 00-.151-.014h-.144a3.04 3.04 0 00-.286.014c.009-.033.017-.153.03-.356.014-.204.028-.452.042-.744.012-.293.027-.612.037-.955.01-.344.016-.672.016-.988 0-.287-.004-.528-.013-.724zm5.481.29a31.407 31.407 0 00-.037-.806 3.92 3.92 0 00.791.02 6.5 6.5 0 00.232-.02c-.017.269-.03.538-.04.806a40.6 40.6 0 00-.011.92v.848c0 .346.005.652.011.92.01.268.023.53.04.789a1.873 1.873 0 00-.232-.014h-.561a1.81 1.81 0 00-.23.014c.016-.259.028-.521.037-.789.009-.268.012-.574.012-.92v-.849c0-.344-.003-.65-.012-.919zm3.458-.121a1.525 1.525 0 00-.017-.218c-.061 0-.138 0-.23.006l-.293.015a7.132 7.132 0 00-.617.06c.008-.047.017-.092.023-.138a1.04 1.04 0 000-.274c-.006-.045-.015-.091-.023-.136.142.003.27.008.383.012.113.004.231.007.351.009l.386.006a38.91 38.91 0 001.004 0l.381-.006c.118-.002.23-.005.342-.01l.357-.011c-.007.045-.015.09-.021.136a1.064 1.064 0 000 .274c.006.046.014.091.021.137a5.33 5.33 0 00-.28-.034c-.104-.01-.206-.018-.308-.026l-.29-.014a4.412 4.412 0 00-.231-.006 2.398 2.398 0 00-.013.219v1.887c0 .346.005.652.013.92.007.268.02.53.038.789a1.845 1.845 0 00-.231-.014h-.561c-.085 0-.16.005-.232.014a27.638 27.638 0 00.051-1.709V54.7c0-.12-.002-.23-.003-.329zm6.463.602a1.654 1.654 0 00-.279-.546 1.21 1.21 0 00-.43-.346 1.254 1.254 0 00-.55-.123 1.1 1.1 0 00-.573.154c-.167.102-.31.24-.426.415a1.91 1.91 0 00-.264.613c-.061.236-.09.487-.09.752 0 .332.033.613.105.842.071.229.164.413.287.552.121.138.259.24.417.303.159.061.325.092.499.092.187 0 .365-.038.537-.118.17-.08.318-.2.446-.362.125-.161.228-.368.305-.616.078-.25.116-.545.116-.886 0-.27-.034-.512-.1-.726zm-3.464-.003a2.166 2.166 0 011.238-1.193c.294-.115.623-.173.984-.173.334 0 .643.046.93.137.286.091.535.229.748.412.213.182.38.414.502.694.121.281.184.61.184.983a2.156 2.156 0 01-.671 1.58c-.21.201-.46.358-.751.47a2.652 2.652 0 01-.959.17 3.43 3.43 0 01-.927-.121 1.984 1.984 0 01-.754-.394 1.924 1.924 0 01-.509-.694c-.124-.279-.187-.614-.187-1.005 0-.308.058-.597.172-.866zm7.872-.549a.5.5 0 00-.173-.247.647.647 0 00-.298-.108 3.115 3.115 0 00-.439-.025c-.013.565-.019 1.13-.019 1.695a.671.671 0 00.071.01c.024.002.044.004.066.004.274 0 .485-.075.629-.222.146-.148.22-.372.22-.672 0-.18-.02-.328-.057-.435zm-.929 1.583v.256a25.358 25.358 0 00.051 1.709 1.878 1.878 0 00-.233-.014h-.559c-.085 0-.161.005-.23.014a28.102 28.102 0 00.047-1.709v-.848a28.083 28.083 0 00-.047-1.726c.069.008.145.015.23.02.082.007.176.01.28.01.112 0 .241-.005.385-.015a7.675 7.675 0 01.936-.003c.112.007.21.02.29.037.081.017.151.04.213.064a1 1 0 01.467.437c.072.137.109.297.109.484 0 .304-.083.55-.248.742-.169.192-.407.326-.719.406.199.353.414.705.642 1.056.228.35.458.7.686 1.045a2.961 2.961 0 00-.28-.014h-.564c-.093 0-.19.005-.285.014l-1.116-1.965h-.055zm3.56-1.512c-.008-.268-.02-.537-.037-.806a3.89 3.89 0 00.791.02c.082-.005.161-.013.231-.02a27.625 27.625 0 00-.051 1.726v.848a27.638 27.638 0 00.051 1.709 1.845 1.845 0 00-.231-.014h-.561c-.083 0-.161.005-.23.014.017-.259.029-.521.037-.789.007-.268.012-.574.012-.92v-.849c0-.344-.005-.65-.012-.919zm2.769-.29a40.558 40.558 0 01-.02-.516c.117.02.21.03.281.03.072 0 .165-.01.282-.03.453.501.901.996 1.344 1.483.441.486.896.98 1.36 1.485v-1.149c0-.203-.001-.404-.003-.601l-.006-.546a14.23 14.23 0 00-.012-.43 1.693 1.693 0 00-.021-.242c.116.02.21.03.282.03.069 0 .162-.01.278-.03a90.16 90.16 0 00-.081 1.889 55.026 55.026 0 00-.018 1.645v.749a2.397 2.397 0 00-.498 0 80.507 80.507 0 00-2.726-3.011c-.005.12-.008.241-.01.36-.001.122-.004.243-.004.368v.723c0 .25.003.461.004.637.002.175.005.321.01.443l.012.296c.004.076.009.138.014.184a.848.848 0 00-.151-.014h-.144a3.04 3.04 0 00-.286.014c.009-.033.02-.153.031-.356.012-.204.027-.452.041-.744.015-.293.026-.612.037-.955.01-.344.015-.672.015-.988 0-.287-.003-.528-.011-.724zm8.53-.04a1.457 1.457 0 00-.73-.172 1.45 1.45 0 00-.571.123c-.189.08-.356.201-.504.363a1.874 1.874 0 00-.359.61 2.412 2.412 0 00-.136.855c0 .25.032.48.101.693.07.212.167.397.296.552.128.156.288.277.475.365a1.5 1.5 0 00.642.13 3.89 3.89 0 00.383-.031 1.46 1.46 0 00.179-.034.454.454 0 00.118-.046c.008-.05.012-.113.015-.188.004-.075.004-.157.004-.248 0-.337-.008-.587-.019-.746-.014-.16-.021-.269-.026-.327a3.05 3.05 0 00.461.031 2.617 2.617 0 00.506-.031 3.505 3.505 0 00-.037.42l-.01.312-.003.316v.204c0 .105.001.203.003.29.003.09.007.153.016.19-.275.08-.551.143-.832.188a5.083 5.083 0 01-.833.069c-.356 0-.687-.047-.987-.141a2.209 2.209 0 01-.78-.411 1.919 1.919 0 01-.512-.657 1.953 1.953 0 01-.184-.863c0-.393.066-.739.198-1.036a2.01 2.01 0 01.541-.743 2.32 2.32 0 01.82-.446 3.43 3.43 0 011.022-.15c.315 0 .59.034.82.098.231.064.459.157.683.277-.034.108-.064.214-.097.318-.03.104-.056.21-.078.318h-.087a1.582 1.582 0 00-.498-.452zm-89.562 8.645a26.945 26.945 0 00-.587 1.484h1.141a44.569 44.569 0 00-.553-1.484zm2.208 3.111a3.176 3.176 0 00-.285-.012h-.53c-.09 0-.177.003-.264.012-.068-.203-.136-.412-.207-.622a15.7 15.7 0 00-.224-.636 12.59 12.59 0 00-.398-.01c-.134-.002-.267-.004-.4-.004l-.325.003a8.312 8.312 0 00-.323.011 12.938 12.938 0 00-.425 1.258.814.814 0 00-.146-.012h-.295c-.052 0-.105.003-.163.012.05-.108.117-.257.2-.449.082-.191.174-.407.274-.647a223.761 223.761 0 00.663-1.617 81.708 81.708 0 00.64-1.601c.041.007.081.015.12.02a.57.57 0 00.117.011.58.58 0 00.118-.01c.038-.006.076-.014.118-.02l.428 1.133a72.019 72.019 0 00.907 2.296c.145.349.279.644.4.884zm5.76-3.765c-.007-.196-.015-.37-.018-.518.117.02.21.03.282.03.069 0 .163-.01.28-.03a392.673 392.673 0 002.706 2.968v-1.148c0-.204-.002-.404-.004-.602l-.006-.544a14.45 14.45 0 00-.011-.431c-.008-.12-.016-.2-.023-.243.117.02.21.03.281.03.07 0 .164-.01.28-.03-.02.377-.037.72-.05 1.026-.011.304-.023.592-.031.863s-.013.539-.014.8c-.004.265-.005.547-.005.846v.748a2.366 2.366 0 00-.499 0 79.693 79.693 0 00-2.725-3.012l-.009.362c0 .121-.003.244-.003.368v.725c0 .248.002.46.003.635.003.174.006.322.01.442l.011.297.013.183a.834.834 0 00-.149-.013h-.144a3.07 3.07 0 00-.287.013c.01-.033.02-.15.031-.354a45.34 45.34 0 00.094-2.688c0-.288-.004-.528-.013-.723zm10.806 2.513v.374c0 .12 0 .23.004.33l.002.194.225.012c.086.004.195.006.324.006.47 0 .841-.16 1.117-.48.273-.321.41-.804.41-1.454 0-.257-.033-.488-.102-.691a1.556 1.556 0 00-.29-.521 1.27 1.27 0 00-.45-.33 1.449 1.449 0 00-.586-.116 5.935 5.935 0 00-.648.031l-.002.194c-.004.1-.004.212-.004.336v2.115zm-.935-2.224a28.567 28.567 0 00-.038-.807 4.02 4.02 0 00.51.03c.138 0 .293-.004.463-.015.17-.01.394-.015.668-.015.357 0 .683.032.976.096.293.065.546.174.756.327.213.155.376.361.493.62.117.261.175.588.175.983 0 .345-.058.656-.172.936a2.177 2.177 0 01-.467.714 2.04 2.04 0 01-.685.452c-.26.103-.54.155-.834.155-.312 0-.578 0-.797-.006-.22-.004-.412-.006-.575-.006h-.28c-.084 0-.159.003-.23.012a25.406 25.406 0 00.049-1.708v-.848c0-.346-.003-.65-.012-.92zm16.629 3.037a1.49 1.49 0 00-.049.264c-.338.171-.76.256-1.272.256-.362 0-.685-.05-.97-.153a2.06 2.06 0 01-.723-.429 1.865 1.865 0 01-.453-.658 2.167 2.167 0 01-.154-.823c0-.433.066-.8.202-1.1.135-.303.315-.548.542-.737a2.17 2.17 0 01.788-.414c.3-.087.614-.13.943-.13.106 0 .222.007.342.023a3.541 3.541 0 01.671.162c.1.038.187.078.259.12a2.208 2.208 0 00-.144.636h-.088a1.526 1.526 0 00-.484-.428 1.277 1.277 0 00-.587-.128c-.166 0-.334.038-.502.112-.168.076-.321.19-.459.343-.136.155-.249.35-.334.589a2.58 2.58 0 00-.127.859c0 .32.043.592.13.818.088.228.201.413.34.556.139.143.298.248.474.315.177.066.355.1.533.1.1 0 .202-.011.307-.036.103-.022.205-.053.305-.092.099-.039.193-.089.283-.147.09-.057.168-.122.233-.193l.082.049a3.516 3.516 0 00-.088.265zm9.247-2.557a1.65 1.65 0 00-.277-.546 1.225 1.225 0 00-.984-.467c-.21 0-.4.051-.57.153-.167.102-.311.24-.426.414a1.991 1.991 0 00-.265.616c-.06.233-.09.484-.09.75 0 .333.035.613.105.841.071.23.166.414.287.553.12.14.259.24.418.302.158.062.325.095.498.095a1.223 1.223 0 00.983-.481 1.89 1.89 0 00.306-.618 3.02 3.02 0 00.115-.886 2.4 2.4 0 00-.1-.726zm-3.463-.003c.114-.27.274-.507.483-.71.207-.204.458-.364.754-.481.296-.117.624-.174.985-.174.333 0 .642.045.929.137.286.09.536.228.748.411.211.183.38.415.502.696.123.28.184.608.184.982a2.152 2.152 0 01-.669 1.58c-.21.202-.462.36-.753.471-.291.113-.61.168-.961.168-.328 0-.637-.04-.924-.12a1.962 1.962 0 01-.754-.395 1.872 1.872 0 01-.508-.691c-.125-.28-.187-.617-.187-1.007 0-.307.056-.597.171-.867zm10.478-.766c-.009-.196-.014-.37-.018-.518.116.02.21.03.28.03.072 0 .166-.01.281-.03.453.503.901.997 1.342 1.484.443.486.898.981 1.364 1.484v-1.148c0-.204-.002-.404-.003-.602a59.611 59.611 0 01-.006-.544 8.286 8.286 0 00-.034-.674c.116.02.208.03.279.03.07 0 .165-.01.282-.03-.022.377-.039.72-.049 1.026a44.286 44.286 0 00-.049 1.664c-.002.264-.003.546-.003.845v.748a2.352 2.352 0 00-.498 0 80.476 80.476 0 00-2.725-3.012c-.005.121-.008.243-.009.362-.003.121-.003.244-.003.368v.725a39.941 39.941 0 00.012 1.077c.005.121.009.22.014.297.003.075.006.138.01.183a.83.83 0 00-.148-.013h-.144c-.095 0-.19.004-.287.013a4.14 4.14 0 00.031-.354 51.084 51.084 0 00.078-1.7 30.9 30.9 0 00.017-.988c0-.288-.005-.528-.014-.723zm10.155.168a2.313 2.313 0 00-.015-.219 5.35 5.35 0 00-.232.007c-.092.004-.19.01-.294.016a9.1 9.1 0 00-.317.023c-.107.013-.209.023-.299.035a2.117 2.117 0 00.029-.274 2.12 2.12 0 00-.029-.274l.383.012c.114.005.23.008.348.01l.388.005c.139.003.306.003.501.003.194 0 .363 0 .502-.003.138-.001.267-.004.385-.006.115-.001.228-.004.339-.009l.358-.012c-.009.045-.015.091-.021.136a.82.82 0 000 .276c.006.045.012.091.021.136-.084-.012-.177-.022-.28-.035a7.833 7.833 0 00-.31-.023c-.102-.006-.197-.012-.289-.016a5.35 5.35 0 00-.232-.007.78.78 0 00-.007.089c-.003.036-.003.08-.003.13v1.89c0 .344.003.65.01.919.01.267.022.53.037.788a1.774 1.774 0 00-.228-.013h-.561c-.084 0-.163.004-.233.013a24.498 24.498 0 00.052-1.708v-1.558c0-.122-.001-.23-.003-.331zm9.659.049a.477.477 0 00-.17-.245.635.635 0 00-.299-.11 3.402 3.402 0 00-.438-.025c-.014.566-.02 1.132-.02 1.695.025.005.049.008.071.011.023.001.044.003.067.003.274 0 .483-.075.628-.221.148-.149.22-.372.22-.67 0-.183-.02-.33-.059-.438zm-.927 1.584v.256a25.34 25.34 0 00.049 1.708 1.828 1.828 0 00-.23-.013h-.56c-.085 0-.161.004-.233.013a21.89 21.89 0 00.05-1.708v-.848a24.414 24.414 0 00-.05-1.727 3.934 3.934 0 00.513.03c.11 0 .239-.004.383-.015a7.718 7.718 0 01.938-.003c.112.008.208.021.29.038a1.009 1.009 0 01.384.161c.124.093.222.205.296.34.072.136.11.296.11.484 0 .303-.084.55-.251.742-.167.191-.405.326-.717.405.201.353.414.707.643 1.057.229.352.457.699.685 1.044a2.977 2.977 0 00-.28-.013h-.564c-.093 0-.188.004-.283.013l-1.118-1.964h-.055zm11.262-1.032a1.691 1.691 0 00-.279-.546 1.225 1.225 0 00-.982-.467c-.212 0-.402.051-.572.153a1.35 1.35 0 00-.424.414 1.947 1.947 0 00-.267.616c-.06.233-.089.484-.089.75 0 .333.034.613.106.841.07.23.164.414.285.553.121.14.259.24.418.302.158.062.325.095.5.095.187 0 .365-.041.536-.12.17-.078.319-.2.446-.361a1.93 1.93 0 00.305-.618 3.02 3.02 0 00.115-.886c0-.27-.032-.512-.098-.726zm-3.465-.003c.113-.27.276-.507.483-.71.208-.204.458-.364.754-.481a2.66 2.66 0 01.985-.174c.333 0 .644.045.93.137a2.1 2.1 0 01.748.411c.212.183.38.415.501.696.123.28.186.608.186.982a2.153 2.153 0 01-.672 1.58 2.2 2.2 0 01-.75.471 2.654 2.654 0 01-.961.168c-.33 0-.638-.04-.926-.12a1.885 1.885 0 01-1.263-1.085c-.124-.28-.185-.618-.185-1.008 0-.307.055-.597.17-.867zm10.422-.477a21.99 21.99 0 00-.038-.807 3.874 3.874 0 00.793.021c.082-.006.158-.013.229-.02a27.475 27.475 0 00-.049 1.726v.848a75.924 75.924 0 00.012 1.26 11.37 11.37 0 001.428-.08 1.295 1.295 0 00-.024.28c0 .066.001.117.006.156a.47.47 0 00.018.092 23.08 23.08 0 00-1.091-.013h-.988c-.095 0-.164.001-.213.003a1.985 1.985 0 00-.121.01c.018-.257.03-.52.038-.788s.011-.575.011-.92v-.848c0-.346-.003-.65-.011-.92z" fill="#35353E"/><path fill-rule="evenodd" clip-rule="evenodd" d="M51.28 33.223c0-5.903-2.084-10.938-6.25-15.106-4.09-4.088-9.086-6.132-14.99-6.132-5.866 0-10.862 2.044-14.988 6.132-2.646 2.647-4.441 6.347-5.382 11.1v19.81H0v-16.13c.29-8.075 3.296-14.992 9.018-20.75 6.05-6.013 13.347-9.02 21.89-9.02 8.583 0 15.88 3.007 21.89 9.02 6.05 6.048 9.075 13.364 9.075 21.945 0 8.546-3.025 15.824-9.075 21.836C47.185 61.57 40.45 64.596 32.592 65l-30.357-.054L0 62.929v-8.9h31.778c2.569-.182 4.29-.42 5.166-.716a15.26 15.26 0 001.356-.488c.108-.073.234-.127.379-.162 2.316-1.05 4.433-2.552 6.351-4.505 4.166-4.125 6.25-9.104 6.25-14.935zm-4.949-.217c0 4.522-1.59 8.361-4.775 11.516-2.859 2.894-6.244 4.485-10.158 4.775H14.29v-21.24c.76-2.496 2.117-4.72 4.072-6.674 3.22-3.19 7.095-4.785 11.625-4.785 4.528 0 8.383 1.595 11.568 4.785 3.184 3.184 4.775 7.058 4.775 11.623z" fill="#41ABBD"/><path fill-rule="evenodd" clip-rule="evenodd" d="M43.709 23.996c-1.623 5.578-4.644 10.578-9.064 14.999-5.789 5.788-12.573 9.18-20.354 10.176V28.058c.76-2.497 2.117-4.72 4.072-6.675 3.22-3.19 7.095-4.785 11.625-4.785 4.528 0 8.383 1.596 11.568 4.785a17.13 17.13 0 012.153 2.613zm1.184-6.014c-4.063-3.999-9.014-5.997-14.853-5.997-5.866 0-10.862 2.044-14.988 6.132-2.646 2.648-4.441 6.347-5.382 11.1v19.81H3.455c-1.525.167-2.677.167-3.455 0v-16.13c.29-8.075 3.296-14.991 9.018-20.75 6.05-6.013 13.345-9.02 21.89-9.02 4.904 0 9.39.985 13.46 2.952.501 2.44.751 4.986.751 7.634 0 1.453-.075 2.876-.225 4.269z" fill="#65CCD6"/></g><defs><clipPath id="clip0_231_3067"><path fill="#fff" d="M0 0h169v68H0z"/></clipPath></defs></svg>