<svg width="1920" height="844" fill="none" xmlns="http://www.w3.org/2000/svg"><mask id="a" style="mask-type:alpha" maskUnits="userSpaceOnUse" x="0" y="0" width="1920" height="844"><path fill="url(#paint0_linear_231_2869)" d="M0 0h1920v844H0z"/></mask><g mask="url(#a)" stroke="#fff" stroke-width="40"><path d="M-89 596S313.5 15 700 132c231.066 69.948 271.17 572.118 512 589 191.11 13.396 281.22-400.045 472-417.5 200.32-18.328 483 179 483 179" stroke-opacity=".3"/><path d="M-113 1157.78S75.5 575.277 472 680.777c233.304 62.077 294.17 520.523 535 537.403 191.11 13.4 312.72-403.448 503.5-420.903 200.32-18.328 451.5 182.407 451.5 182.407" stroke-opacity=".25"/></g><defs><linearGradient id="paint0_linear_231_2869" x1="960" y1="162.615" x2="960" y2="866.946" gradientUnits="userSpaceOnUse"><stop stop-color="#F4F5F9"/><stop offset="1" stop-color="#E3E5EF"/></linearGradient></defs></svg>