<svg width="60" height="60" fill="none" xmlns="http://www.w3.org/2000/svg"><path d="M22.625 29.675L26.65 33.7 37.4 22.95" stroke="url(#paint0_linear_709_5113)" stroke-width="3" stroke-linecap="round" stroke-linejoin="round"/><path d="M51.475 17.8c0-3.075-2.35-6.475-5.225-7.55L33.775 5.575c-2.075-.775-5.475-.775-7.55 0l-12.475 4.7C10.875 11.35 8.525 14.75 8.525 17.8v18.575c0 2.95 1.95 6.825 4.325 8.6L23.6 53c3.525 2.65 9.325 2.65 12.85 0l10.75-8.025c2.375-1.775 4.325-5.65 4.325-8.6v-8.8" stroke="url(#paint1_linear_709_5113)" stroke-width="3" stroke-linecap="round" stroke-linejoin="round"/><defs><linearGradient id="paint0_linear_709_5113" x1="21.08" y1="20.875" x2="41.287" y2="23.984" gradientUnits="userSpaceOnUse"><stop stop-color="#0D899F"/><stop offset="1" stop-color="#19B8AE"/></linearGradient><linearGradient id="paint1_linear_709_5113" x1="4.028" y1="-4.654" x2="63.678" y2="1.089" gradientUnits="userSpaceOnUse"><stop stop-color="#0D899F"/><stop offset="1" stop-color="#19B8AE"/></linearGradient></defs></svg>