<svg width="60" height="60" fill="none" xmlns="http://www.w3.org/2000/svg"><path d="M24.726 37.05l3.625 2.8c.475.475 1.525.7 2.225.7H35c1.4 0 2.925-1.05 3.275-2.45l2.8-8.55c.575-1.625-.475-3.05-2.225-3.05h-4.675c-.7 0-1.275-.575-1.175-1.4l.575-3.75c.225-1.05-.475-2.225-1.525-2.575-.925-.35-2.1.125-2.575.825l-4.8 7.125" stroke="url(#paint0_linear_709_5102)" stroke-width="3" stroke-miterlimit="10"/><path d="M18.75 37.05V25.6c0-1.65.7-2.225 2.35-2.225h1.175c1.625 0 2.35.575 2.35 2.225v11.45c0 1.625-.7 2.225-2.35 2.225H21.1c-1.65 0-2.35-.575-2.35-2.225z" stroke="url(#paint1_linear_709_5102)" stroke-width="3" stroke-linecap="round" stroke-linejoin="round"/><path d="M36.65 50.025l-3.8 3.8c-1.55 1.55-4.1 1.55-5.65 0l-3.8-3.8c-.65-.65-1.925-1.175-2.825-1.175H15.2c-2.2 0-4-1.8-4-4v-5.375c0-.9-.525-2.175-1.175-2.825l-3.8-3.8c-1.55-1.55-1.55-4.1 0-5.65l3.8-3.8c.65-.65 1.175-1.925 1.175-2.825V15.2c0-2.2 1.8-4 4-4" stroke="url(#paint2_linear_709_5102)" stroke-width="3" stroke-linecap="round" stroke-linejoin="round"/><path d="M23.35 9.975l3.8-3.8c1.55-1.55 4.1-1.55 5.65 0l3.8 3.8c.65.65 1.925 1.175 2.825 1.175H44.8c2.2 0 4 1.8 4 4v5.375c0 .9.525 2.175 1.175 2.825l3.8 3.8c1.55 1.55 1.55 4.1 0 5.65l-3.8 3.8c-.65.65-1.175 1.925-1.175 2.825V44.8c0 2.2-1.8 4-4 4" stroke="url(#paint3_linear_709_5102)" stroke-width="3" stroke-linecap="round" stroke-linejoin="round"/><defs><linearGradient id="paint0_linear_709_5102" x1="22.944" y1="14.432" x2="45.962" y2="16.381" gradientUnits="userSpaceOnUse"><stop stop-color="#0D899F"/><stop offset="1" stop-color="#19B8AE"/></linearGradient><linearGradient id="paint1_linear_709_5102" x1="18.136" y1="20.307" x2="26.347" y2="20.646" gradientUnits="userSpaceOnUse"><stop stop-color="#0D899F"/><stop offset="1" stop-color="#19B8AE"/></linearGradient><linearGradient id="paint2_linear_709_5102" x1="1.759" y1="2.75" x2="45.697" y2="6.298" gradientUnits="userSpaceOnUse"><stop stop-color="#0D899F"/><stop offset="1" stop-color="#19B8AE"/></linearGradient><linearGradient id="paint3_linear_709_5102" x1="20.046" y1="-3.438" x2="63.984" y2=".11" gradientUnits="userSpaceOnUse"><stop stop-color="#0D899F"/><stop offset="1" stop-color="#19B8AE"/></linearGradient></defs></svg>