<svg width="60" height="60" fill="none" xmlns="http://www.w3.org/2000/svg"><path d="M37.5 29.598c0-4.15-3.35-7.5-7.5-7.5a7.49 7.49 0 00-7.5 7.5c0 4.15 3.35 7.5 7.5 7.5 1.025 0 2.025-.2 2.925-.6" stroke="url(#paint0_linear_709_5093)" stroke-width="3" stroke-miterlimit="10" stroke-linecap="round" stroke-linejoin="round"/><path d="M17.2 51.047l2.724 1.576c1.975 1.175 4.525.474 5.7-1.5l.275-.475c2.25-3.926 5.95-3.926 8.225 0l.275.474c1.175 1.975 3.725 2.675 5.7 1.5l4.325-2.474c2.275-1.3 3.05-4.226 1.75-6.476-2.275-3.924-.425-7.124 4.1-7.124 2.6 0 4.75-2.126 4.75-4.75v-4.4c0-2.6-2.125-4.75-4.75-4.75-2.525 0-4.225-1-4.825-2.575-.475-1.226-.275-2.826.725-4.55 1.3-2.275.525-5.175-1.75-6.476L42.4 7.897" stroke="url(#paint1_linear_709_5093)" stroke-width="3" stroke-miterlimit="10" stroke-linecap="round" stroke-linejoin="round"/><path d="M34.1 8.547c-2.25 3.925-5.95 3.925-8.225 0l-.275-.475c-1.15-1.975-3.7-2.675-5.675-1.5L15.6 9.047c-2.275 1.3-3.05 4.225-1.75 6.5 2.275 3.9.425 7.1-4.1 7.1-2.6 0-4.75 2.125-4.75 4.75v4.4c0 2.6 2.125 4.75 4.75 4.75 4.525 0 6.375 3.2 4.1 7.125" stroke="url(#paint2_linear_709_5093)" stroke-width="3" stroke-miterlimit="10" stroke-linecap="round" stroke-linejoin="round"/><defs><linearGradient id="paint0_linear_709_5093" x1="20.931" y1="19.203" x2="41.672" y2="21.525" gradientUnits="userSpaceOnUse"><stop stop-color="#0D899F"/><stop offset="1" stop-color="#19B8AE"/></linearGradient><linearGradient id="paint1_linear_709_5093" x1="13.243" y1="-.844" x2="65.742" y2="4.063" gradientUnits="userSpaceOnUse"><stop stop-color="#0D899F"/><stop offset="1" stop-color="#19B8AE"/></linearGradient><linearGradient id="paint2_linear_709_5093" x1="1.956" y1="-1.27" x2="42.396" y2="2.227" gradientUnits="userSpaceOnUse"><stop stop-color="#0D899F"/><stop offset="1" stop-color="#19B8AE"/></linearGradient></defs></svg>