<svg width="60" height="60" fill="none" xmlns="http://www.w3.org/2000/svg"><path d="M40.625 8.6C44.8 11.8 47.5 16.825 47.5 22.5c0 3.625-1.075 6.95-2.925 9.725-2.7 4-6.975 6.825-11.95 7.55-.85.15-1.725.225-2.625.225-.9 0-1.775-.075-2.625-.225-4.975-.725-9.25-3.55-11.95-7.55-1.85-2.775-2.925-6.1-2.925-9.725C12.5 12.825 20.325 5 30 5" stroke="url(#paint0_linear_709_5127)" stroke-width="3" stroke-linecap="round" stroke-linejoin="round"/><path d="M53.126 46.175L49 47.15c-.925.225-1.65.925-1.85 1.85l-.875 3.675c-.475 2-3.025 2.6-4.35 1.025L30 40 18.076 53.725C16.75 55.3 14.2 54.7 13.726 52.7l-.875-3.675c-.225-.925-.95-1.65-1.85-1.85L6.876 46.2c-1.9-.45-2.575-2.825-1.2-4.2l9.75-9.75c2.7 4 6.975 6.825 11.95 7.55.85.15 1.725.225 2.625.225.9 0 1.775-.075 2.625-.225 4.975-.725 9.25-3.55 11.95-7.55l9.75 9.75c1.375 1.35.7 3.725-1.2 4.175z" stroke="url(#paint1_linear_709_5127)" stroke-width="3" stroke-linecap="round" stroke-linejoin="round"/><path d="M31.45 14.95l1.476 2.95c.2.4.725.8 1.2.875l2.675.45c1.7.275 2.1 1.525.875 2.75L35.6 24.05c-.35.35-.55 1.025-.425 1.525l.6 2.575c.475 2.025-.6 2.825-2.4 1.75l-2.5-1.475c-.45-.275-1.2-.275-1.65 0l-2.5 1.475c-1.8 1.05-2.875.275-2.4-1.75l.6-2.575c.1-.475-.075-1.175-.425-1.525l-2.075-2.075c-1.225-1.225-.825-2.45.875-2.75l2.675-.45c.45-.075.975-.475 1.175-.875l1.475-2.95c.725-1.6 2.025-1.6 2.825 0z" stroke="url(#paint2_linear_709_5127)" stroke-width="3" stroke-linecap="round" stroke-linejoin="round"/><defs><linearGradient id="paint0_linear_709_5127" x1="8.839" y1="-1.754" x2="57.235" y2="3.663" gradientUnits="userSpaceOnUse"><stop stop-color="#0D899F"/><stop offset="1" stop-color="#19B8AE"/></linearGradient><linearGradient id="paint1_linear_709_5127" x1="-.291" y1="27.933" x2="65.708" y2="44.48" gradientUnits="userSpaceOnUse"><stop stop-color="#0D899F"/><stop offset="1" stop-color="#19B8AE"/></linearGradient><linearGradient id="paint2_linear_709_5127" x1="19.971" y1="10.541" x2="43.023" y2="13.128" gradientUnits="userSpaceOnUse"><stop stop-color="#0D899F"/><stop offset="1" stop-color="#19B8AE"/></linearGradient></defs></svg>