<svg width="20" height="20" fill="none" xmlns="http://www.w3.org/2000/svg"><g clip-path="url(#clip0_778_16608)"><path d="M6.872 1.605c0 1.224.192 2.427.568 3.566.19.558.016 1.244-.334 1.585L5.408 9.005c1.393 2.608 2.999 4.214 5.587 5.588l2.19-1.648a1.617 1.617 0 011.638-.398 11.37 11.37 0 003.572.57c.885 0 1.605.72 1.605 1.605v3.673C20 19.28 19.28 20 18.395 20 8.252 20 0 11.748 0 1.605 0 .72.72 0 1.605 0h3.662c.885 0 1.605.72 1.605 1.605z" fill="#000"/></g><defs><clipPath id="clip0_778_16608"><path fill="#fff" transform="matrix(0 -1 -1 0 20 20)" d="M0 0h20v20H0z"/></clipPath></defs></svg>