<svg width="21" height="18" fill="none" xmlns="http://www.w3.org/2000/svg"><path d="M20.065.614l-3.174 16s-.443 1.11-1.664.577l-7.323-5.614L5.24 10.29.758 8.78S.07 8.538.004 8.005c-.067-.533.777-.821.777-.821L18.6.193s1.464-.644 1.464.421" fill="#fff"/><path d="M7.342 16.434s-.213-.02-.48-.863c-.266-.843-1.62-5.281-1.62-5.281l10.763-6.835s.622-.377.6 0c0 0 .11.066-.223.377-.333.31-8.455 7.612-8.455 7.612" fill="#C9D0E8"/><path d="M10.714 13.73l-2.896 2.64s-.227.172-.474.065l.554-4.906" fill="#fff"/></svg>