<svg width="154" height="154" fill="none" xmlns="http://www.w3.org/2000/svg"><g clip-path="url(#clip0_798_10437)"><path d="M68.214 49.095a6.29 6.29 0 00-6.176-5.137c-3.949 0-6.952 3.57-6.232 7.452a6.318 6.318 0 007.385 5.062c3.403-.637 5.666-3.92 5.023-7.377zm-5.606 4.235a3.15 3.15 0 01-3.66-2.505c-.356-1.924 1.148-3.672 3.09-3.672a3.091 3.091 0 013.033 2.528c.32 1.719-.796 3.337-2.463 3.65z" fill="url(#paint0_linear_798_10437)"/><path d="M127.039 85.958H91.264c-3.78 0-6.892 3.06-6.892 6.892a6.9 6.9 0 006.892 6.892h9.454c-4.05 13.361-16.29 22.533-30.474 22.533-17.557 0-31.84-14.298-31.84-31.873 0-11.618 6.246-22.196 16.34-27.844a14.226 14.226 0 009.912 1.767 14.275 14.275 0 004.123-1.452l9.595 9.633c2.682 2.694 7.06 2.703 9.757.022l3.075-3.055 5.436 5.467a4.282 4.282 0 006.06.018l4.795-4.767a4.282 4.282 0 00.017-6.06l-5.432-5.464 3.069-3.048.001-.001c2.704-2.688 2.723-7.067.044-9.761L67.796 8.24c-2.677-2.687-7.052-2.687-9.753-.001l-1.405 1.396-7.023-7.063a4.281 4.281 0 00-6.059-.018l-8.118 8.071a4.29 4.29 0 00-.017 6.059l7.017 7.058-1.422 1.413c-2.69 2.699-2.706 7.076-.038 9.756l8.478 8.52a14.173 14.173 0 00-1.36 3.565c-16.409 8.396-26.58 24.943-26.58 43.405 0 16.524 8.219 31.572 21.77 40.556H32.267c-6.725 0-12.197 5.457-12.197 12.165v7.076a4.497 4.497 0 004.494 4.492h90.783c2.462 0 4.464-2.015 4.464-4.492v-7.076c0-6.708-5.458-12.165-12.166-12.165H97.242c10.801-7.178 18.377-18.443 20.859-31.216h8.937c3.743 0 6.892-3.04 6.892-6.893 0-3.8-3.091-6.891-6.891-6.891zM37.691 12.892l8.118-8.071a1.087 1.087 0 011.54.003v.001l7.017 7.058-9.663 9.606-7.017-7.057a1.09 1.09 0 01.005-1.54zm78.925 130.231v7.076c0 .728-.557 1.298-1.269 1.298H24.564a1.3 1.3 0 01-1.298-1.298v-7.076c0-4.945 4.038-8.969 9.001-8.969h75.378c4.947 0 8.971 4.024 8.971 8.969zM64.07 61.184c-6.013 1.12-11.85-2.844-12.968-8.9-1.132-6.104 2.952-11.822 8.897-12.93 6.586-1.226 13.004 3.683 13.107 10.777.068 5.444-3.81 10.079-9.036 11.053zm41.179 5.2a1.089 1.089 0 01-.005 1.54l-4.795 4.767a1.087 1.087 0 01-1.54-.004l-5.436-5.467 6.343-6.301 5.433 5.465zM43.274 27.417l17.021-16.91c1.453-1.447 3.801-1.451 5.235-.012l37.4 37.614c1.437 1.445 1.423 3.796-.03 5.242a38622.845 38622.845 0 00-17.02 16.91 3.713 3.713 0 01-5.242-.01l-9.182-9.219c2.9-2.55 4.943-6.583 4.838-11.073-.197-9.065-8.437-15.325-16.88-13.756-3.029.565-5.944 2.142-8.091 4.574l-8.08-8.12c-1.43-1.436-1.414-3.79.03-5.24zm47.683 103.527H49.534C34.212 123.09 24.71 107.591 24.71 90.402c0-16.562 8.748-31.49 23.016-39.6.002.043.012.085.014.127.032.648.091 1.297.212 1.946.55 2.945 2.107 5.692 4.026 7.579-10.403 6.362-16.77 17.631-16.77 29.948 0 19.337 15.717 35.069 35.035 35.069 15.936 0 29.665-10.516 33.823-25.729h10.798c-2.794 13.387-11.611 24.934-23.908 31.202zm36.082-34.397c-.882-.013-35.175 0-35.775 0a3.701 3.701 0 01-3.696-3.697 3.703 3.703 0 013.696-3.697h35.775a3.7 3.7 0 013.696 3.697c0 2.08-1.712 3.697-3.696 3.697z" fill="url(#paint1_linear_798_10437)"/></g><defs><linearGradient id="paint0_linear_798_10437" x1="66.456" y1="48.842" x2="57.22" y2="53.589" gradientUnits="userSpaceOnUse"><stop stop-color="#19B8AE"/><stop offset="1" stop-color="#0D899F"/></linearGradient><linearGradient id="paint1_linear_798_10437" x1="117.089" y1="60.657" x2="25.165" y2="95.728" gradientUnits="userSpaceOnUse"><stop stop-color="#19B8AE"/><stop offset="1" stop-color="#0D899F"/></linearGradient><clipPath id="clip0_798_10437"><path fill="#fff" d="M0 0h154v154H0z"/></clipPath></defs></svg>