<svg width="141" height="141" fill="none" xmlns="http://www.w3.org/2000/svg"><g clip-path="url(#clip0_705_5059)"><path d="M57.134 13.774a1.906 1.906 0 012.312-1.382h.002c9.493 2.454 15.757 11.632 14.586 21.352a1.909 1.909 0 01-3.789-.455c.944-7.831-4.103-15.225-11.737-17.198a1.91 1.91 0 01-1.374-2.317zm83.268 83.116c0 22.728-18.491 41.219-41.22 41.219-14.07 0-26.511-7.092-33.951-17.883-5.176 12.727-17.381 20.778-30.97 20.778-2.82 0-5.697-.346-8.584-1.068-17.864-4.688-28.627-23.03-24.01-40.892l19.126-74.022C25.379 7.266 43.414-3.313 61.847.944c17.855 4.721 28.59 23.055 23.985 40.883l-4.646 17.988a40.967 40.967 0 0117.996-4.144c22.729 0 41.22 18.49 41.22 41.219zm-41.22-37.403c-19.984 0-36.357 15.754-37.354 35.495h74.71c-.997-19.74-17.371-35.495-37.356-35.495zm-83.78 1.651l49.6 12.74a41.539 41.539 0 0111.56-11.42l5.576-21.585C86.22 25.071 76.705 8.82 60.93 4.647 44.317.81 28.62 9.975 24.487 25.977L15.4 61.137zm47.289 54.885a40.953 40.953 0 01-4.727-19.133c0-7.092 1.8-13.771 4.968-19.605L14.447 64.832 5.36 99.998c-4.09 15.834 5.448 32.091 21.264 36.242 15.863 3.963 31.478-4.876 36.066-20.217zm73.847-17.225h-74.71c.997 19.741 17.37 35.495 37.354 35.495 19.985 0 36.359-15.754 37.356-35.496z" fill="url(#paint0_linear_705_5059)"/></g><defs><linearGradient id="paint0_linear_705_5059" x1="119.723" y1="54.562" x2="17.079" y2="106.868" gradientUnits="userSpaceOnUse"><stop stop-color="#19B8AE"/><stop offset="1" stop-color="#0D899F"/></linearGradient><clipPath id="clip0_705_5059"><path fill="#fff" d="M0 0h141v141H0z"/></clipPath></defs></svg>