<svg width="144" height="144" fill="none" xmlns="http://www.w3.org/2000/svg"><path d="M83.332 12.08C83.332 5.86 78.249.8 72 .8c-6.25 0-11.332 5.06-11.332 11.28 0 6.218 5.083 11.278 11.332 11.278 6.25 0 11.332-5.06 11.332-11.278zm-19.104 0c0-4.257 3.487-7.72 7.772-7.72s7.772 3.463 7.772 7.72c0 4.255-3.487 7.718-7.772 7.718s-7.772-3.463-7.772-7.718z" fill="url(#paint0_linear_705_5058)"/><path d="M114.348 18.324h-.033a11.175 11.175 0 00-7.958 3.292 11.177 11.177 0 00-3.292 7.99 11.286 11.286 0 003.33 7.999 11.282 11.282 0 007.998 3.33h.033c3.009 0 5.834-1.168 7.958-3.292a11.177 11.177 0 003.292-7.991 11.277 11.277 0 00-3.33-7.998 11.282 11.282 0 00-7.998-3.33zm5.519 16.802c-3.009 3.01-7.921 2.993-10.955-.038-3.029-3.032-3.047-7.946-.038-10.955a7.668 7.668 0 015.443-2.246c1.992 0 3.989.761 5.512 2.284 3.03 3.032 3.047 7.946.038 10.955z" fill="url(#paint1_linear_705_5058)"/><path d="M131.92 60.668c-6.217 0-11.278 5.083-11.278 11.332 0 6.25 5.061 11.332 11.278 11.332 6.22 0 11.28-5.083 11.28-11.332 0-6.25-5.06-11.332-11.28-11.332zm0 19.104c-4.255 0-7.718-3.487-7.718-7.772s3.463-7.772 7.718-7.772c4.257 0 7.72 3.487 7.72 7.772s-3.463 7.772-7.72 7.772z" fill="url(#paint2_linear_705_5058)"/><path d="M114.426 103.065h-.033a11.286 11.286 0 00-7.998 3.33 11.288 11.288 0 00-3.33 7.998 11.177 11.177 0 003.292 7.991 11.176 11.176 0 007.958 3.292h.033a11.278 11.278 0 007.998-3.33 11.278 11.278 0 003.33-7.998 11.177 11.177 0 00-3.292-7.991 11.176 11.176 0 00-7.958-3.292zm5.403 16.764c-3.033 3.033-7.946 3.047-10.955.038-3.009-3.009-2.991-7.923.038-10.955a7.78 7.78 0 015.513-2.284c1.974 0 3.944.748 5.442 2.246 3.009 3.009 2.992 7.923-.038 10.955z" fill="url(#paint3_linear_705_5058)"/><path d="M72 120.642c-6.25 0-11.332 5.061-11.332 11.278 0 6.22 5.083 11.28 11.332 11.28 6.25 0 11.332-5.06 11.332-11.28 0-6.217-5.083-11.278-11.332-11.278zm0 18.998c-4.285 0-7.772-3.463-7.772-7.72 0-4.255 3.487-7.718 7.772-7.718s7.772 3.463 7.772 7.718c0 4.257-3.487 7.72-7.772 7.72z" fill="url(#paint4_linear_705_5058)"/><path d="M29.607 103.065h-.033a11.176 11.176 0 00-7.958 3.292 11.178 11.178 0 00-3.292 7.991 11.282 11.282 0 003.33 7.998 11.277 11.277 0 007.998 3.33h.033c3.009 0 5.834-1.168 7.958-3.292a11.178 11.178 0 003.292-7.991 11.284 11.284 0 00-3.33-7.998 11.286 11.286 0 00-7.998-3.33zm5.519 16.802c-3.01 3.009-7.923 2.995-10.955-.038-3.03-3.032-3.047-7.946-.038-10.955a7.669 7.669 0 015.443-2.246c1.992 0 3.989.762 5.512 2.284 3.03 3.032 3.047 7.946.038 10.955z" fill="url(#paint5_linear_705_5058)"/><path d="M23.358 72c0-6.25-5.06-11.332-11.278-11.332C5.86 60.668.8 65.751.8 72c0 6.25 5.06 11.332 11.28 11.332 6.218 0 11.278-5.083 11.278-11.332zM12.08 79.772c-4.257 0-7.72-3.487-7.72-7.772s3.463-7.772 7.72-7.772c4.255 0 7.718 3.487 7.718 7.772s-3.463 7.772-7.718 7.772z" fill="url(#paint6_linear_705_5058)"/><path d="M29.685 18.324h-.033c-3.02.008-5.86 1.19-7.998 3.33a11.281 11.281 0 00-3.33 7.998 11.177 11.177 0 003.292 7.99 11.175 11.175 0 007.958 3.293h.033a11.28 11.28 0 007.998-3.33 11.282 11.282 0 003.33-7.998 11.177 11.177 0 00-3.292-7.991 11.175 11.175 0 00-7.958-3.292zm5.403 16.764c-3.032 3.031-7.944 3.049-10.955.038-3.009-3.01-2.992-7.923.038-10.955a7.776 7.776 0 015.512-2.284 7.67 7.67 0 015.443 2.246c3.009 3.009 2.992 7.923-.038 10.955z" fill="url(#paint7_linear_705_5058)"/><path d="M43.718 21.188a58.04 58.04 0 0111.67-4.922 1.778 1.778 0 10-1.015-3.41 61.47 61.47 0 00-12.39 5.224 1.778 1.778 0 00.87 3.334c.293 0 .59-.073.865-.226z" fill="url(#paint8_linear_705_5058)"/><path d="M100.351 20.994a1.78 1.78 0 00.849-3.346 61.425 61.425 0 00-12.457-5.064 1.776 1.776 0 00-2.197 1.227 1.78 1.78 0 001.227 2.197 57.878 57.878 0 0111.734 4.772c.269.144.558.214.844.214z" fill="url(#paint9_linear_705_5058)"/><path d="M123.276 41.074a1.778 1.778 0 00-.687 2.422 58.035 58.035 0 014.923 11.669 1.779 1.779 0 103.411-1.015 61.444 61.444 0 00-5.226-12.39 1.78 1.78 0 00-2.421-.686z" fill="url(#paint10_linear_705_5058)"/><path d="M129.966 86.323a1.776 1.776 0 00-2.197 1.228 57.876 57.876 0 01-4.771 11.733 1.78 1.78 0 103.132 1.693 61.422 61.422 0 005.064-12.456 1.78 1.78 0 00-1.228-2.198z" fill="url(#paint11_linear_705_5058)"/><path d="M100.282 122.367a58.096 58.096 0 01-11.67 4.923 1.776 1.776 0 00-1.197 2.212 1.778 1.778 0 002.213 1.198 61.507 61.507 0 0012.389-5.225 1.78 1.78 0 10-1.735-3.108z" fill="url(#paint12_linear_705_5058)"/><path d="M56.227 127.547a57.879 57.879 0 01-11.733-4.772 1.78 1.78 0 00-1.693 3.133 61.425 61.425 0 0012.456 5.063 1.78 1.78 0 00.97-3.424z" fill="url(#paint13_linear_705_5058)"/><path d="M19.859 102.707a1.779 1.779 0 001.552-2.648 58.022 58.022 0 01-4.923-11.669 1.775 1.775 0 00-2.213-1.197 1.778 1.778 0 00-1.197 2.212 61.462 61.462 0 005.225 12.389c.325.584.931.913 1.556.913z" fill="url(#paint14_linear_705_5058)"/><path d="M14.034 57.232a1.78 1.78 0 002.197-1.227 57.878 57.878 0 014.771-11.734 1.78 1.78 0 00-3.132-1.693 61.413 61.413 0 00-5.064 12.456 1.78 1.78 0 001.228 2.198z" fill="url(#paint15_linear_705_5058)"/><path d="M83.294 58.567a14.116 14.116 0 012.05 3.779 1.78 1.78 0 003.352-1.203 17.663 17.663 0 00-2.569-4.732c-3.388-4.455-8.537-7.01-14.127-7.01-3.231 0-6.393.877-9.147 2.536a1.78 1.78 0 001.84 3.049A14.154 14.154 0 0172 52.96c4.467 0 8.584 2.042 11.294 5.606z" fill="url(#paint16_linear_705_5058)"/><path d="M59.361 83.288a14.01 14.01 0 01-1.537-6.424v-9.728c0-3.068.963-5.986 2.787-8.44a1.78 1.78 0 00-2.858-2.125 17.594 17.594 0 00-3.489 10.565v9.728c0 2.828.647 5.534 1.923 8.041a1.781 1.781 0 003.174-1.617z" fill="url(#paint17_linear_705_5058)"/><path d="M62.855 92.063A17.725 17.725 0 0072 94.6c9.78 0 17.736-7.956 17.736-17.735V69.47a1.779 1.779 0 10-3.56 0v7.395c0 7.817-6.359 14.175-14.176 14.175-2.581 0-5.109-.7-7.306-2.025a1.78 1.78 0 00-1.84 3.049z" fill="url(#paint18_linear_705_5058)"/><path d="M94.356 58.514a1.781 1.781 0 001.676-2.381 25.43 25.43 0 00-3.7-6.807C87.458 42.912 80.048 39.233 72 39.233a25.49 25.49 0 00-13.162 3.653 1.781 1.781 0 001.839 3.048A21.921 21.921 0 0172 42.794c6.924 0 13.301 3.167 17.5 8.687a21.861 21.861 0 013.18 5.855 1.78 1.78 0 001.676 1.178z" fill="url(#paint19_linear_705_5058)"/><path d="M54.351 51.681a1.781 1.781 0 00-.367-2.49 1.786 1.786 0 00-2.49.366c-3.284 4.42-5.02 9.679-5.02 15.203v14.48c0 4.073.931 7.967 2.769 11.57a1.779 1.779 0 103.17-1.617 21.727 21.727 0 01-2.38-9.953V64.76c0-4.754 1.494-9.277 4.318-13.079z" fill="url(#paint20_linear_705_5058)"/><path d="M97.527 79.24V68.231a1.779 1.779 0 10-3.56 0V79.24c0 12.112-9.855 21.967-21.967 21.967a21.963 21.963 0 01-11.325-3.14 1.775 1.775 0 00-2.442.607 1.778 1.778 0 00.607 2.442A25.49 25.49 0 0072 104.767c14.075 0 25.527-11.452 25.527-25.527z" fill="url(#paint21_linear_705_5058)"/><path d="M72 58.125c-5.187 0-9.407 4.22-9.407 9.408v2.727a1.779 1.779 0 103.56 0v-2.727A5.854 5.854 0 0172 61.685a1.779 1.779 0 100-3.56z" fill="url(#paint22_linear_705_5058)"/><path d="M72 82.315a5.854 5.854 0 01-5.847-5.848 1.78 1.78 0 10-3.56 0c0 5.188 4.22 9.408 9.407 9.408a1.779 1.779 0 100-3.56z" fill="url(#paint23_linear_705_5058)"/><path d="M76.135 80.603a1.78 1.78 0 102.517 2.517 9.346 9.346 0 002.756-6.653v-8.934a9.446 9.446 0 00-2.952-6.844 1.78 1.78 0 10-2.444 2.59 5.79 5.79 0 011.836 4.254v8.934a5.81 5.81 0 01-1.713 4.136z" fill="url(#paint24_linear_705_5058)"/><path d="M73.78 68.202a1.779 1.779 0 10-3.56 0v7.28a1.779 1.779 0 103.56 0v-7.28z" fill="url(#paint25_linear_705_5058)"/><defs><linearGradient id="paint0_linear_705_5058" x1="122.137" y1="55.9" x2="17.957" y2="109.443" gradientUnits="userSpaceOnUse"><stop stop-color="#19B8AE"/><stop offset="1" stop-color="#0D899F"/></linearGradient><linearGradient id="paint1_linear_705_5058" x1="122.137" y1="55.9" x2="17.957" y2="109.443" gradientUnits="userSpaceOnUse"><stop stop-color="#19B8AE"/><stop offset="1" stop-color="#0D899F"/></linearGradient><linearGradient id="paint2_linear_705_5058" x1="122.137" y1="55.9" x2="17.957" y2="109.443" gradientUnits="userSpaceOnUse"><stop stop-color="#19B8AE"/><stop offset="1" stop-color="#0D899F"/></linearGradient><linearGradient id="paint3_linear_705_5058" x1="122.137" y1="55.9" x2="17.957" y2="109.443" gradientUnits="userSpaceOnUse"><stop stop-color="#19B8AE"/><stop offset="1" stop-color="#0D899F"/></linearGradient><linearGradient id="paint4_linear_705_5058" x1="122.137" y1="55.9" x2="17.957" y2="109.443" gradientUnits="userSpaceOnUse"><stop stop-color="#19B8AE"/><stop offset="1" stop-color="#0D899F"/></linearGradient><linearGradient id="paint5_linear_705_5058" x1="122.137" y1="55.9" x2="17.957" y2="109.443" gradientUnits="userSpaceOnUse"><stop stop-color="#19B8AE"/><stop offset="1" stop-color="#0D899F"/></linearGradient><linearGradient id="paint6_linear_705_5058" x1="122.137" y1="55.9" x2="17.957" y2="109.443" gradientUnits="userSpaceOnUse"><stop stop-color="#19B8AE"/><stop offset="1" stop-color="#0D899F"/></linearGradient><linearGradient id="paint7_linear_705_5058" x1="122.137" y1="55.9" x2="17.957" y2="109.443" gradientUnits="userSpaceOnUse"><stop stop-color="#19B8AE"/><stop offset="1" stop-color="#0D899F"/></linearGradient><linearGradient id="paint8_linear_705_5058" x1="122.137" y1="55.9" x2="17.957" y2="109.443" gradientUnits="userSpaceOnUse"><stop stop-color="#19B8AE"/><stop offset="1" stop-color="#0D899F"/></linearGradient><linearGradient id="paint9_linear_705_5058" x1="122.137" y1="55.9" x2="17.957" y2="109.443" gradientUnits="userSpaceOnUse"><stop stop-color="#19B8AE"/><stop offset="1" stop-color="#0D899F"/></linearGradient><linearGradient id="paint10_linear_705_5058" x1="122.137" y1="55.9" x2="17.957" y2="109.443" gradientUnits="userSpaceOnUse"><stop stop-color="#19B8AE"/><stop offset="1" stop-color="#0D899F"/></linearGradient><linearGradient id="paint11_linear_705_5058" x1="122.137" y1="55.9" x2="17.957" y2="109.443" gradientUnits="userSpaceOnUse"><stop stop-color="#19B8AE"/><stop offset="1" stop-color="#0D899F"/></linearGradient><linearGradient id="paint12_linear_705_5058" x1="122.137" y1="55.9" x2="17.957" y2="109.443" gradientUnits="userSpaceOnUse"><stop stop-color="#19B8AE"/><stop offset="1" stop-color="#0D899F"/></linearGradient><linearGradient id="paint13_linear_705_5058" x1="122.137" y1="55.9" x2="17.957" y2="109.443" gradientUnits="userSpaceOnUse"><stop stop-color="#19B8AE"/><stop offset="1" stop-color="#0D899F"/></linearGradient><linearGradient id="paint14_linear_705_5058" x1="122.137" y1="55.9" x2="17.957" y2="109.443" gradientUnits="userSpaceOnUse"><stop stop-color="#19B8AE"/><stop offset="1" stop-color="#0D899F"/></linearGradient><linearGradient id="paint15_linear_705_5058" x1="122.137" y1="55.9" x2="17.957" y2="109.443" gradientUnits="userSpaceOnUse"><stop stop-color="#19B8AE"/><stop offset="1" stop-color="#0D899F"/></linearGradient><linearGradient id="paint16_linear_705_5058" x1="122.137" y1="55.9" x2="17.957" y2="109.443" gradientUnits="userSpaceOnUse"><stop stop-color="#19B8AE"/><stop offset="1" stop-color="#0D899F"/></linearGradient><linearGradient id="paint17_linear_705_5058" x1="122.137" y1="55.9" x2="17.957" y2="109.443" gradientUnits="userSpaceOnUse"><stop stop-color="#19B8AE"/><stop offset="1" stop-color="#0D899F"/></linearGradient><linearGradient id="paint18_linear_705_5058" x1="122.137" y1="55.9" x2="17.957" y2="109.443" gradientUnits="userSpaceOnUse"><stop stop-color="#19B8AE"/><stop offset="1" stop-color="#0D899F"/></linearGradient><linearGradient id="paint19_linear_705_5058" x1="122.137" y1="55.9" x2="17.957" y2="109.443" gradientUnits="userSpaceOnUse"><stop stop-color="#19B8AE"/><stop offset="1" stop-color="#0D899F"/></linearGradient><linearGradient id="paint20_linear_705_5058" x1="122.137" y1="55.9" x2="17.957" y2="109.443" gradientUnits="userSpaceOnUse"><stop stop-color="#19B8AE"/><stop offset="1" stop-color="#0D899F"/></linearGradient><linearGradient id="paint21_linear_705_5058" x1="122.137" y1="55.9" x2="17.957" y2="109.443" gradientUnits="userSpaceOnUse"><stop stop-color="#19B8AE"/><stop offset="1" stop-color="#0D899F"/></linearGradient><linearGradient id="paint22_linear_705_5058" x1="122.137" y1="55.9" x2="17.957" y2="109.443" gradientUnits="userSpaceOnUse"><stop stop-color="#19B8AE"/><stop offset="1" stop-color="#0D899F"/></linearGradient><linearGradient id="paint23_linear_705_5058" x1="122.137" y1="55.9" x2="17.957" y2="109.443" gradientUnits="userSpaceOnUse"><stop stop-color="#19B8AE"/><stop offset="1" stop-color="#0D899F"/></linearGradient><linearGradient id="paint24_linear_705_5058" x1="122.137" y1="55.9" x2="17.957" y2="109.443" gradientUnits="userSpaceOnUse"><stop stop-color="#19B8AE"/><stop offset="1" stop-color="#0D899F"/></linearGradient><linearGradient id="paint25_linear_705_5058" x1="122.137" y1="55.9" x2="17.957" y2="109.443" gradientUnits="userSpaceOnUse"><stop stop-color="#19B8AE"/><stop offset="1" stop-color="#0D899F"/></linearGradient></defs></svg>