<svg width="144" height="144" fill="none" xmlns="http://www.w3.org/2000/svg"><path d="M132.403 46.424h-2.304l-3.673-8.52a1.983 1.983 0 00-1.281-1.118l-8.158-2.264-3.35-7.95a1.973 1.973 0 00-1.771-1.203l-7.776-.169-2.863-6.81a1.968 1.968 0 00-1.45-1.177l-8.173-1.542-2.574-5.468a1.97 1.97 0 00-.864-.9l-7.493-3.947a1.973 1.973 0 00-1.723-.054L71.998 8.42l-6.951-3.121a1.965 1.965 0 00-1.723.054L55.83 9.299a1.97 1.97 0 00-.864.9l-2.574 5.471-8.173 1.543a1.97 1.97 0 00-1.45 1.17L39.907 25.2l-7.776.173a1.968 1.968 0 00-1.771 1.204l-3.35 7.945-8.158 2.266a1.971 1.971 0 00-1.281 1.117l-3.673 8.52h-2.304a6.475 6.475 0 00-6.469 6.47v10.9a1.967 1.967 0 001.969 1.968h2.783l12.79 34.616a20.263 20.263 0 007.066 38.416 20.267 20.267 0 0018.294-8.455 20.261 20.261 0 003.645-9.77h40.653a20.266 20.266 0 0011.665 16.453 20.268 20.268 0 0026.834-9.727 20.266 20.266 0 00-9.494-26.917l12.79-34.617h2.783a1.967 1.967 0 001.969-1.969v-10.9a6.476 6.476 0 00-6.469-6.469zM20.811 40.33l7.655-2.126 7.63 1.997a1.969 1.969 0 10.997-3.81l-5.944-1.555 2.342-5.558 7.778-.174a1.97 1.97 0 001.773-1.203l2.947-7.01 8.122-1.54a1.971 1.971 0 001.416-1.097l2.722-5.782 6.061-3.193 6.882 3.097a1.97 1.97 0 001.613 0l6.882-3.09 6.061 3.192 1.88 3.996-5.583 2.601a1.97 1.97 0 00.15 3.645 1.97 1.97 0 001.514-.076l6.799-3.17 7.5 1.414 2.947 7.01a1.967 1.967 0 001.771 1.206l7.778.174 3.225 7.65a1.978 1.978 0 001.287 1.133l8.168 2.268 2.628 6.095H18.185l2.626-6.094zm-6.739 25.433h35.933l6.265 50.87h-4.598a20.178 20.178 0 00-8.565-14.687 20.182 20.182 0 00-16.748-2.934l-12.287-33.25zm46.166 50.87l-6.263-50.87h36.047l-6.265 50.87h-23.52zm-28.74 18.304a16.337 16.337 0 1116.336-16.335 16.355 16.355 0 01-16.336 16.335zm97.337-16.335a16.334 16.334 0 01-10.087 15.091 16.34 16.34 0 01-17.802-3.543 16.332 16.332 0 01-3.54-17.802 16.332 16.332 0 0115.092-10.084 16.353 16.353 0 0116.337 16.338zm-11.199-19.59a20.184 20.184 0 00-25.312 17.621h-4.6l6.266-50.87h35.932l-12.286 33.25zm17.298-37.187H9.063v-8.93a2.534 2.534 0 012.53-2.532h120.81a2.533 2.533 0 012.531 2.531v8.931z" fill="url(#paint0_linear_798_10430)"/><path d="M31.497 108.126a10.472 10.472 0 00-10.272 12.517 10.479 10.479 0 008.228 8.229 10.478 10.478 0 0012.518-10.271 10.486 10.486 0 00-10.474-10.475zm0 17.01a6.53 6.53 0 01-6.039-4.035 6.538 6.538 0 018.541-8.54 6.537 6.537 0 014.034 6.04 6.542 6.542 0 01-6.536 6.535z" fill="url(#paint1_linear_798_10430)"/><path d="M102.023 118.601a10.478 10.478 0 0012.518 10.271 10.478 10.478 0 005.363-2.866 10.482 10.482 0 002.27-11.415 10.47 10.47 0 00-9.677-6.465 10.483 10.483 0 00-10.474 10.475zm17.01 0a6.536 6.536 0 11-13.073-.001 6.536 6.536 0 0113.073.001z" fill="url(#paint2_linear_798_10430)"/><path d="M64.628 26.12l-6.188-1.584a1.956 1.956 0 00-1.826.464l-4.269 3.955a1.968 1.968 0 002.676 2.888l3.477-3.226 5.154 1.317a1.969 1.969 0 00.976-3.814z" fill="url(#paint3_linear_798_10430)"/><path d="M98.723 34.457l-5.327-3.814a1.971 1.971 0 00-2.047-.155l-5.546 2.852a1.968 1.968 0 101.8 3.502l4.479-2.299 4.351 3.115a1.968 1.968 0 002.292-3.201h-.002z" fill="url(#paint4_linear_798_10430)"/><defs><linearGradient id="paint0_linear_798_10430" x1="119.089" y1="56.886" x2="21.232" y2="107.171" gradientUnits="userSpaceOnUse"><stop stop-color="#19B8AE"/><stop offset="1" stop-color="#0D899F"/></linearGradient><linearGradient id="paint1_linear_798_10430" x1="38.873" y1="116.231" x2="23.547" y2="124.108" gradientUnits="userSpaceOnUse"><stop stop-color="#19B8AE"/><stop offset="1" stop-color="#0D899F"/></linearGradient><linearGradient id="paint2_linear_798_10430" x1="119.873" y1="116.231" x2="104.547" y2="124.108" gradientUnits="userSpaceOnUse"><stop stop-color="#19B8AE"/><stop offset="1" stop-color="#0D899F"/></linearGradient><linearGradient id="paint3_linear_798_10430" x1="63.945" y1="27.524" x2="56.868" y2="34.14" gradientUnits="userSpaceOnUse"><stop stop-color="#19B8AE"/><stop offset="1" stop-color="#0D899F"/></linearGradient><linearGradient id="paint4_linear_798_10430" x1="97.345" y1="33.269" x2="90.378" y2="40.111" gradientUnits="userSpaceOnUse"><stop stop-color="#19B8AE"/><stop offset="1" stop-color="#0D899F"/></linearGradient></defs></svg>