<svg width="151" height="151" fill="none" xmlns="http://www.w3.org/2000/svg"><g clip-path="url(#clip0_704_5028)"><path d="M149.21 78.394c-4.01-.402-39.409-3.82-47.417-.68-4.373 1.523-18.18 10.188-26.282 16.575 0-5.955-2.893-9.773-6.161-14.08-2.863-3.773-6.112-8.051-8.217-14.902-6.538-21.203 7.449-32.767 20.317-38.736 9.704-4.497 13.107-11.008 14.303-15.313 2.867 3.834 7.292 12.019 8.407 26.92 1.902 18.63-12.012 32.525-27.649 38.183-1.902-11.06-.327-20.634 4.903-29.956a1.962 1.962 0 00-3.425-1.915c-6.044 10.805-7.597 21.88-4.884 34.855a1.961 1.961 0 002.452 1.484 55.104 55.104 0 0017.11-8.991c11.114-8.659 16.435-20.4 15.418-33.954-1.856-24.187-12.499-34.647-14.568-32.686a1.961 1.961 0 00-1.045 1.811c0 .405.199 10.064-12.64 16.016-27.596 12.28-30.999 37.686-13.578 59.566 3.664 4.788 6.263 8.345 5.06 14.892-3.922 2.964-7.06 5.389-10.256 7.844.496-6.397-1.935-11.58-8.172-12.587-3.118-.461-5.485.327-8.22 1.21-2.419.79-5.158 1.69-9.28 2.039-11.613.951-14.983-10.11-18.957-18.405-2.514-5.23-6.783-8.312-9.927-9.992 15.846-7.89 37.046-5.387 45.851 13.933-6.21-5.03-13.348-7.994-21.65-9.008a1.961 1.961 0 00-.524 3.888l.046.005c10.1 1.233 18.324 5.648 25.139 13.496 1.274 1.484 3.755.327 3.412-1.618-.137-.8-3.595-19.654-21.844-26.6C18.75 54.777 1.62 65.658.893 66.125a1.962 1.962 0 00.517 3.527c.081.023 7.978 2.425 11.44 9.623 6.785 15.868 12.95 25.311 33.012 18.392 9.2-3.449 12.813 1.15 10.737 11.034-4.622 3.471-5.41 9.806-1.245 13.78-5.354-.98-10.708-1.428-18.088-1.307-2.67-.01-5.32.481-7.809 1.448-.928-2.429 1.187-3.533 4.377-4.403 6.785-1.693 15.29-.032 15.362 0a1.975 1.975 0 10.797-3.87c-.382-.078-9.44-1.856-17.094.053-6.047 1.366-9.132 5.422-6.828 10.253-1.857 1.566-2.968 4.027-2.615 6.315.327 4.618 10.018 6.697 17.65 8.55 7.668 1.909 16.32 3.004 24.276 4.704 6.118 1.307 10.998 1.811 14.888 1.811 6.119 0 9.786-1.249 11.963-2.615 5.733-3.566 27.282-22.03 34.382-28.214 7.759-6.766 10.162-7.489 18.957-8.172a1.967 1.967 0 00-.304-3.922c-9.586.748-12.698 1.68-21.245 9.129-8.848 7.714-28.763 24.668-33.876 27.845-7.275 4.478-23.043.327-34.617-1.713-4.759-.833-9.253-1.634-13.492-2.674-3.877-1.062-13.221-2.807-14.709-5.301-.225-1.344.886-2.661 2.076-3.396.198-.076.38-.187.54-.327 1.817-.981 4.402-1.575 7.357-1.615 8.792-.117 13.65.595 16.538 1.138 6.171.85 14.274.431 21.01 2.209a1.961 1.961 0 002.23-1.023c2.886-5.756 5.641-12.714 10.927-16.405l7.25-4.249c2.199-1.382.293-4.625-1.982-3.386-.228.134-22.912 13.401-28.557 16.771-3.18 1.896-6.05.654-7.367-1.307-1.906-2.844-.193-5.648 1.853-7.191 1.252-.942 3.03-2.308 5.285-4.037 8.74-6.926 30.522-23.269 38.739-26.21 5.397-2.118 30.221-.605 45.593.931a1.961 1.961 0 10.436-3.898l-.047-.005v-.003zM74.874 123.01l-.608 1.258a61.483 61.483 0 00-7.096-1.016c2.229-1.324 6.396-3.772 10.855-6.39-1.167 2.039-2.184 4.144-3.151 6.148z" fill="url(#paint0_linear_704_5028)"/></g><defs><linearGradient id="paint0_linear_704_5028" x1="128.665" y1="59.551" x2="21.459" y2="118.529" gradientUnits="userSpaceOnUse"><stop stop-color="#19B8AE"/><stop offset="1" stop-color="#0D899F"/></linearGradient><clipPath id="clip0_704_5028"><path fill="#fff" d="M0 0h151v151H0z"/></clipPath></defs></svg>