<svg width="136" height="136" fill="none" xmlns="http://www.w3.org/2000/svg"><path d="M100.407 63.442h20.819a5.047 5.047 0 100-3.719h-20.819v-9.127h13.42a1.86 1.86 0 001.859-1.86v-12.25h5.54a5.047 5.047 0 100-3.718h-7.399a1.863 1.863 0 00-1.86 1.859v12.25h-11.56v-9.424a1.859 1.859 0 00-1.86-1.86h-9.423v-11.56h12.25a1.862 1.862 0 001.859-1.859v-7.399a5.048 5.048 0 003.097-5.637 5.043 5.043 0 00-4.956-4.1 5.045 5.045 0 00-1.86 9.737v5.54h-12.25a1.86 1.86 0 00-1.86 1.86v13.419h-9.126V14.776a5.046 5.046 0 10-3.719 0v20.818h-9.116V14.775a5.048 5.048 0 10-3.719 0v20.819h-9.127v-13.42a1.86 1.86 0 00-1.86-1.859h-12.25v-5.54a5.047 5.047 0 10-3.718 0v7.4a1.86 1.86 0 001.859 1.859h12.25v11.56h-9.424a1.86 1.86 0 00-1.86 1.86v9.423h-11.56v-12.25a1.86 1.86 0 00-1.859-1.86h-7.398a5.047 5.047 0 100 3.72h5.539v12.25a1.86 1.86 0 001.86 1.86h13.419v9.126H14.777a5.046 5.046 0 100 3.719h20.818v9.116H14.776a5.048 5.048 0 100 3.719h20.819v9.127h-13.42a1.86 1.86 0 00-1.859 1.86v12.25h-5.54a5.047 5.047 0 100 3.719h7.4a1.862 1.862 0 001.86-1.86v-12.25h11.559v9.424a1.86 1.86 0 001.86 1.859h9.424v11.56H34.628a1.863 1.863 0 00-1.86 1.86v7.399a5.047 5.047 0 00-1.356 8.579 5.047 5.047 0 105.075-8.579v-5.54h12.25a1.858 1.858 0 001.86-1.859v-13.42h9.127v20.818a5.042 5.042 0 00-3.097 5.637 5.05 5.05 0 004.956 4.099 5.046 5.046 0 001.86-9.736v-20.818h9.116v20.819a5.047 5.047 0 103.719 0v-20.819h9.127v13.42a1.86 1.86 0 001.86 1.859h12.25v5.54a5.048 5.048 0 001.859 9.739 5.045 5.045 0 004.423-7.478 5.045 5.045 0 00-2.564-2.261v-7.399a1.863 1.863 0 00-1.859-1.86h-12.25v-11.56h9.424a1.859 1.859 0 001.859-1.86v-9.424h11.56v12.251a1.864 1.864 0 001.86 1.86h7.399a5.047 5.047 0 100-3.72h-5.54v-12.25a1.858 1.858 0 00-1.859-1.86h-13.42v-9.126h20.818a5.042 5.042 0 005.637 3.097 5.05 5.05 0 004.099-4.956 5.046 5.046 0 00-9.736-1.86h-20.818v-9.116zm25.5-3.188a1.327 1.327 0 11.001 2.659 1.327 1.327 0 01-.001-2.66v.001zm0-26.954a1.327 1.327 0 11.001 2.658 1.327 1.327 0 01-.001-2.66v.002zM101.375 8.766a1.327 1.327 0 01.259 2.63 1.328 1.328 0 11-.259-2.63zm-26.954 0a1.328 1.328 0 110 2.656 1.328 1.328 0 010-2.656zm-12.84 0a1.328 1.328 0 110 2.656 1.328 1.328 0 010-2.656zm-26.954 0a1.328 1.328 0 110 2.656 1.328 1.328 0 010-2.656zM10.095 35.954a1.328 1.328 0 110-2.655 1.328 1.328 0 010 2.655zm0 26.954a1.328 1.328 0 110-2.656 1.328 1.328 0 010 2.656zm0 12.84a1.328 1.328 0 110-2.656 1.328 1.328 0 010 2.656zm0 26.954a1.328 1.328 0 110-2.656 1.328 1.328 0 010 2.656zm24.532 24.532a1.332 1.332 0 01-1.303-1.587 1.33 1.33 0 011.811-.968 1.333 1.333 0 01.82 1.227 1.331 1.331 0 01-1.328 1.328zm26.954 0a1.333 1.333 0 01-1.303-1.587 1.331 1.331 0 011.044-1.043 1.326 1.326 0 011.198 2.241 1.327 1.327 0 01-.939.389zm12.84 0a1.332 1.332 0 01-1.303-1.587 1.332 1.332 0 011.043-1.043 1.326 1.326 0 011.198 2.241 1.328 1.328 0 01-.938.389zm26.954 0c-.263 0-.519-.078-.738-.223a1.328 1.328 0 11.738.223zm24.532-27.188a1.326 1.326 0 011.303 1.587 1.32 1.32 0 01-.364.68 1.32 1.32 0 01-1.447.288 1.326 1.326 0 01-.82-1.227 1.328 1.328 0 011.328-1.328zm0-26.955a1.327 1.327 0 11.001 2.655 1.327 1.327 0 01-.001-2.654zM96.689 96.689H39.314V39.312h57.375v57.376z" fill="url(#paint0_linear_798_10425)"/><path d="M88.984 45.156H47.016a1.86 1.86 0 00-1.86 1.86v41.968a1.86 1.86 0 001.86 1.86h41.968a1.86 1.86 0 001.86-1.86V47.016a1.86 1.86 0 00-1.86-1.86zm-1.859 41.969h-38.25v-38.25h38.25v38.25z" fill="url(#paint1_linear_798_10425)"/><path d="M82.61 70.744a1.86 1.86 0 001.859-1.859V58.393a1.86 1.86 0 00-3.719 0v10.492a1.86 1.86 0 001.86 1.86z" fill="url(#paint2_linear_798_10425)"/><defs><linearGradient id="paint0_linear_798_10425" x1="112.34" y1="53.762" x2="20.208" y2="101.113" gradientUnits="userSpaceOnUse"><stop stop-color="#19B8AE"/><stop offset="1" stop-color="#0D899F"/></linearGradient><linearGradient id="paint1_linear_798_10425" x1="84.086" y1="62.834" x2="50.661" y2="80.013" gradientUnits="userSpaceOnUse"><stop stop-color="#19B8AE"/><stop offset="1" stop-color="#0D899F"/></linearGradient><linearGradient id="paint2_linear_798_10425" x1="83.919" y1="62.032" x2="80.54" y2="62.486" gradientUnits="userSpaceOnUse"><stop stop-color="#19B8AE"/><stop offset="1" stop-color="#0D899F"/></linearGradient></defs></svg>