<svg width="151" height="151" fill="none" xmlns="http://www.w3.org/2000/svg"><g clip-path="url(#clip0_707_5069)"><path d="M84.383 75.181a1.3 1.3 0 00.922.382 1.304 1.304 0 00.922-2.227l-14.88-14.88a1.304 1.304 0 10-1.845 1.844l14.882 14.882z" fill="url(#paint0_linear_707_5069)"/><path d="M132.54 75.357a1.308 1.308 0 00-.498-.477l-53.25-28.766-13.248-13.25a1.305 1.305 0 00-1.845 0l-3.004 3.005V1.304c0-.72-.583-1.304-1.304-1.304H43.06c-.721 0-1.305.584-1.305 1.305v53.503L10.922 85.642c-2.935 2.935-2.935 7.709 0 10.643l40.471 40.472a7.502 7.502 0 005.321 2.2 7.502 7.502 0 005.322-2.2l51.742-51.743c2.918 4.168 12.128 21.561 1.643 64.372a1.305 1.305 0 001.267 1.615h18.11c.54 0 1.023-.333 1.217-.836.166-.429 4.07-10.684 5.643-25.075 1.457-13.327 1.058-32.773-9.118-49.733zM44.365 2.609h3.672v24.614a1.304 1.304 0 102.609 0V2.609h7.44v62.185a4.982 4.982 0 01-4.976 4.976h-3.768a4.982 4.982 0 01-4.977-4.976V2.61zm23.406 124.723L20.346 79.907l8.598-8.598 47.424 47.425-8.597 8.598zm-7.58 7.58a4.924 4.924 0 01-6.953 0L12.766 94.44a4.923 4.923 0 010-6.953l5.736-5.735 47.424 47.425-5.735 5.735zm43.806-43.806L93.902 81.01a1.304 1.304 0 10-1.845 1.845l10.095 10.096-23.939 23.938L30.79 69.465l10.967-10.967v6.296c0 4.183 3.403 7.586 7.586 7.586h3.768c4.183 0 7.586-3.403 7.586-7.586V39.558l3.926-3.926 47.424 47.425-8.049 8.049zm29.885 57.285h-15.538c6.098-25.749 4.974-42.181 2.919-51.487-2.32-10.51-6.278-14.597-6.446-14.766l-.003-.003-29.571-29.571 45.242 24.44c9.471 16.007 9.967 34.352 8.646 47.159h-4.316a1.305 1.305 0 100 2.61h4.016a112.72 112.72 0 01-.484 3.376h-8.571a1.304 1.304 0 100 2.609h8.126c-1.423 7.8-3.297 13.563-4.02 15.633z" fill="url(#paint1_linear_707_5069)"/><path d="M51.226 65.668c2.58 0 4.68-2.1 4.68-4.68 0-2.582-2.1-4.682-4.68-4.682a4.686 4.686 0 00-4.681 4.681c0 2.582 2.1 4.681 4.68 4.681zm0-6.753c1.142 0 2.072.93 2.072 2.072 0 1.143-.93 2.072-2.072 2.072a2.074 2.074 0 01-2.072-2.072c0-1.142.93-2.072 2.072-2.072z" fill="url(#paint2_linear_707_5069)"/></g><defs><linearGradient id="paint0_linear_707_5069" x1="84.023" y1="64.84" x2="71.226" y2="71.417" gradientUnits="userSpaceOnUse"><stop stop-color="#19B8AE"/><stop offset="1" stop-color="#0D899F"/></linearGradient><linearGradient id="paint1_linear_707_5069" x1="122.524" y1="58.428" x2="20.156" y2="104.963" gradientUnits="userSpaceOnUse"><stop stop-color="#19B8AE"/><stop offset="1" stop-color="#0D899F"/></linearGradient><linearGradient id="paint2_linear_707_5069" x1="54.522" y1="59.929" x2="47.673" y2="63.449" gradientUnits="userSpaceOnUse"><stop stop-color="#19B8AE"/><stop offset="1" stop-color="#0D899F"/></linearGradient><clipPath id="clip0_707_5069"><path fill="#fff" d="M0 0h151v151H0z"/></clipPath></defs></svg>