<svg width="128" height="128" fill="none" xmlns="http://www.w3.org/2000/svg"><path d="M14.024 126.589c-3.382 0-6.553-1.308-8.931-3.686a12.549 12.549 0 01-3.687-8.932 12.54 12.54 0 013.687-8.931l29.534-29.534a1.423 1.423 0 012.01 0l15.85 15.85a1.43 1.43 0 010 2.013l-29.531 29.534c-2.375 2.378-5.55 3.686-8.932 3.686zm21.61-48.062L7.106 107.054a9.715 9.715 0 00-2.853 6.92 9.717 9.717 0 002.853 6.921 9.71 9.71 0 006.917 2.853 9.706 9.706 0 006.918-2.853l28.527-28.53-13.836-13.838z" fill="url(#paint0_linear_798_10457)"/><path d="M47.54 89.842c-.364 0-.728-.14-1.007-.415l-7.962-7.96a1.42 1.42 0 01-.415-1.006c0-.378.151-.74.416-1.007l27.104-27.105a6.154 6.154 0 014.383-1.809c1.662 0 3.218.643 4.384 1.81l1.206 1.205a6.204 6.204 0 010 8.767L48.544 89.427a1.42 1.42 0 01-1.004.415zm-5.95-9.384l5.947 5.948 26.1-26.1a3.355 3.355 0 000-4.742l-1.205-1.207a3.33 3.33 0 00-2.373-.975c-.898 0-1.74.347-2.372.975L41.59 80.458z" fill="url(#paint1_linear_798_10457)"/><path d="M94.306 91.264c-2.617 0-5.092-1.027-7.035-2.967L67.465 68.491a1.423 1.423 0 012.011-2.011l19.806 19.806c1.855 1.855 4.278 2.532 6.824 1.912 2.546-.62 4.386-2.341 5.18-4.839l22.098-69.666c.845-2.662.197-5.322-1.777-7.299-1.977-1.974-4.637-2.622-7.299-1.777l-69.67 22.095c-2.5.794-4.218 2.631-4.838 5.18-.62 2.549.057 4.972 1.912 6.824l19.806 19.806a1.423 1.423 0 01-2.011 2.01L39.7 40.728c-2.546-2.546-3.516-6.01-2.665-9.51.853-3.498 3.308-6.126 6.74-7.215l69.67-22.099c3.655-1.16 7.458-.233 10.169 2.48 2.713 2.711 3.638 6.514 2.477 10.17l-22.098 69.665c-1.09 3.43-3.718 5.888-7.217 6.742-.827.205-1.658.304-2.471.304z" fill="url(#paint2_linear_798_10457)"/><path d="M24.343 120.929c-.365 0-.729-.14-1.007-.416l-15.85-15.849a1.423 1.423 0 012.011-2.011l15.85 15.849a1.423 1.423 0 01-1.005 2.427z" fill="url(#paint3_linear_798_10457)"/><path d="M41.17 104.101c-.364 0-.728-.139-1.006-.415l-15.85-15.85a1.423 1.423 0 010-2.01 1.423 1.423 0 012.012 0l15.849 15.849a1.423 1.423 0 010 2.011c-.276.276-.64.415-1.004.415z" fill="url(#paint4_linear_798_10457)"/><path d="M94.359 63.983a1.422 1.422 0 01-1.34-1.897l5.066-14.353a1.423 1.423 0 012.682.947l-5.066 14.353c-.207.586-.756.95-1.342.95z" fill="url(#paint5_linear_798_10457)"/><path d="M102.601 40.636a1.422 1.422 0 01-1.34-1.897l1.892-5.36a1.423 1.423 0 012.682.948l-1.892 5.359c-.207.583-.756.95-1.342.95z" fill="url(#paint6_linear_798_10457)"/><defs><linearGradient id="paint0_linear_798_10457" x1="45.285" y1="95.017" x2="7.61" y2="114.379" gradientUnits="userSpaceOnUse"><stop stop-color="#19B8AE"/><stop offset="1" stop-color="#0D899F"/></linearGradient><linearGradient id="paint1_linear_798_10457" x1="71.648" y1="65.747" x2="42.893" y2="80.528" gradientUnits="userSpaceOnUse"><stop stop-color="#19B8AE"/><stop offset="1" stop-color="#0D899F"/></linearGradient><linearGradient id="paint2_linear_798_10457" x1="113.294" y1="36.179" x2="47.559" y2="69.963" gradientUnits="userSpaceOnUse"><stop stop-color="#19B8AE"/><stop offset="1" stop-color="#0D899F"/></linearGradient><linearGradient id="paint3_linear_798_10457" x1="22.998" y1="109.47" x2="9.323" y2="116.498" gradientUnits="userSpaceOnUse"><stop stop-color="#19B8AE"/><stop offset="1" stop-color="#0D899F"/></linearGradient><linearGradient id="paint4_linear_798_10457" x1="39.826" y1="92.642" x2="26.151" y2="99.671" gradientUnits="userSpaceOnUse"><stop stop-color="#19B8AE"/><stop offset="1" stop-color="#0D899F"/></linearGradient><linearGradient id="paint5_linear_798_10457" x1="99.679" y1="53.439" x2="92.749" y2="55.077" gradientUnits="userSpaceOnUse"><stop stop-color="#19B8AE"/><stop offset="1" stop-color="#0D899F"/></linearGradient><linearGradient id="paint6_linear_798_10457" x1="105.216" y1="35.605" x2="101.189" y2="36.8" gradientUnits="userSpaceOnUse"><stop stop-color="#19B8AE"/><stop offset="1" stop-color="#0D899F"/></linearGradient></defs></svg>