<svg width="151" height="151" fill="none" xmlns="http://www.w3.org/2000/svg"><path d="M147.697 77.199c-3.146-1.369-5.71 2.296-8.164 5.851-1.573 2.265-3.696 5.364-5.049 5.364a32.782 32.782 0 00-19.174 6.134 7.429 7.429 0 01-6.071 1.195 7.002 7.002 0 01-4.719-3.523c-2.186-4.058-6.401-4.876-10.491-5.662a40.435 40.435 0 01-4.184-.976l-4.027-20.306a16.138 16.138 0 00-16.531-12.96l-7.141.298-5.16-14.156a7.864 7.864 0 003.288-9.438L52.41 7.487a7.77 7.77 0 00-4.043-4.341 7.865 7.865 0 00-10.711 9.815l7.864 21.533a7.864 7.864 0 004.058 4.436 7.96 7.96 0 003.32.739 7.2 7.2 0 001.163-.11l5.16 14.156-5.742 4.341a16.09 16.09 0 00-4.278 20.59l2.705 4.892A39.009 39.009 0 0045.08 95.05a2.532 2.532 0 01-2.658 1.573 25.287 25.287 0 00-2.218-.173 1.574 1.574 0 10-.126 3.146c.66 0 1.337 0 1.982.157a5.6 5.6 0 005.914-3.429 33.943 33.943 0 016.937-11.388 5.772 5.772 0 013.885-1.132 16.483 16.483 0 003.806-.613 13.101 13.101 0 003.224-1.762 7.676 7.676 0 014.169-1.84c3.429 0 8.195 3.004 12.033 5.426 1.572.944 2.91 1.825 4.136 2.47a26.157 26.157 0 007.346 2.17c3.271.614 6.118 1.18 7.754 3.146h-2.47a25.592 25.592 0 00-19.267 8.761 4.023 4.023 0 01-3.036 1.384h-1.966a1.573 1.573 0 000 3.146h1.966a7.194 7.194 0 005.41-2.454 22.393 22.393 0 0116.894-7.691h4.719a10.098 10.098 0 005.017 2.863 10.601 10.601 0 008.604-1.715 29.726 29.726 0 0117.302-5.537c3.004 0 5.364-3.413 7.645-6.716a29.803 29.803 0 013.366-4.294v64.946H5.505v-44.278a26.54 26.54 0 0111.01 3.87 5.62 5.62 0 006.402-.252 24.8 24.8 0 011.495-1.038 1.578 1.578 0 00.464-2.179 1.576 1.576 0 00-2.179-.464c-.566.362-1.117.755-1.667 1.164a2.477 2.477 0 01-1.399.498 2.477 2.477 0 01-1.432-.388A29.7 29.7 0 004.042 97.93a1.573 1.573 0 00-1.164.424 1.572 1.572 0 00-.487 1.149v47.565a1.573 1.573 0 001.573 1.573h143.135a1.573 1.573 0 001.573-1.573V78.646a1.578 1.578 0 00-.975-1.447zm-96.813-41.18a4.608 4.608 0 01-2.438-2.657L40.58 11.844a4.72 4.72 0 012.816-6.056 4.719 4.719 0 013.602.158 5.536 5.536 0 012.453 2.674l7.865 21.517a4.719 4.719 0 01-2.831 6.04 4.624 4.624 0 01-3.602-.157zm32.81 46.292c-4.388-2.753-9.437-5.899-13.7-5.899-2.188.154-4.272.99-5.96 2.391a9.862 9.862 0 01-2.376 1.416 14.16 14.16 0 01-3.146.487 11.403 11.403 0 00-4.184.881l-2.422-4.514a12.977 12.977 0 013.492-16.563l4.876-3.76 3.68 10.146a1.573 1.573 0 001.48 1.038c.187 0 .373-.032.55-.094a1.573 1.573 0 00.928-2.013L63.215 55.68l6.15-.251a12.961 12.961 0 0113.37 10.475l3.65 18.073c-.834-.488-1.73-1.07-2.69-1.667zm-15.933 23.861a1.572 1.572 0 01-1.112-2.685 1.576 1.576 0 011.714-.341 1.57 1.57 0 01.971 1.453 1.573 1.573 0 01-1.573 1.573zm-21.627 1.054a5.629 5.629 0 00-5.523 6.729 5.633 5.633 0 004.424 4.425 5.635 5.635 0 005.78-2.395 5.63 5.63 0 00-4.681-8.759zm0 8.116a2.486 2.486 0 110-4.972 2.486 2.486 0 010 4.972zm89.734 16.39a5.642 5.642 0 00-6.738-5.556 5.65 5.65 0 00-4.445 4.433 5.646 5.646 0 005.537 6.754 5.629 5.629 0 005.646-5.631zm-8.131 0a2.5 2.5 0 112.485 2.485 2.487 2.487 0 01-2.485-2.485zm-87.36-6.292a1.575 1.575 0 011.88-1.543 1.576 1.576 0 011.146 2.145 1.576 1.576 0 01-1.453.971 1.573 1.573 0 01-1.573-1.573zm9.956 2.234a1.571 1.571 0 011.88-1.543 1.574 1.574 0 011.146 2.145 1.573 1.573 0 01-3.026-.602zm62.099 9.689a1.573 1.573 0 110-3.146 1.573 1.573 0 010 3.146zm4.593-9.564a1.573 1.573 0 110-3.146 1.573 1.573 0 010 3.146zm-71.63 4.719a1.58 1.58 0 011.452.971 1.574 1.574 0 11-1.453-.971zM30.09 98.999a1.573 1.573 0 113.147 0 1.573 1.573 0 01-3.147 0z" fill="url(#paint0_linear_703_5025)"/><defs><linearGradient id="paint0_linear_703_5025" x1="127.035" y1="58.992" x2="20.031" y2="114.007" gradientUnits="userSpaceOnUse"><stop stop-color="#19B8AE"/><stop offset="1" stop-color="#0D899F"/></linearGradient></defs></svg>