<svg width="151" height="151" fill="none" xmlns="http://www.w3.org/2000/svg"><path d="M91.78 88.193l5.348-3.366a1.576 1.576 0 00-1.668-2.674l-4.23 2.784.896-2.752a1.577 1.577 0 00-3.005-.96l-.88 2.737-1.888-4.719a1.574 1.574 0 00-2.925 1.165l2.343 5.867a27.746 27.746 0 00-17.097 52.362l-5.348 3.382a1.586 1.586 0 101.683 2.689l4.294-2.705-.897 2.705a1.575 1.575 0 001.007 1.982c.162.022.326.022.487 0a1.572 1.572 0 001.573-1.101l.881-2.642 1.888 4.718a1.574 1.574 0 102.925-1.164l-2.36-5.882c1.801.379 3.635.574 5.475.582a27.767 27.767 0 0027.1-21.845 27.76 27.76 0 00-15.54-31.147l-.062-.016zm-19.111 48.651c-1.353-.944-1.384-10.256 3.334-24.789 4.72-14.534 10.209-22.021 11.813-22.021 1.337.944 1.368 10.255-3.35 24.789-4.72 14.534-10.209 22.021-11.797 22.021zm10.696-47.188a28.722 28.722 0 00-2.847 4.027 88.09 88.09 0 00-7.55 17.302c-2.218 6.826-4.72 17.145-4.184 23.436a16.026 16.026 0 01-4.059-7.534 33.032 33.032 0 011.023-18.246 33.03 33.03 0 019.893-15.367 15.95 15.95 0 017.724-3.618zm-6.292 47.518a29.138 29.138 0 002.831-4.027 89.062 89.062 0 007.55-17.38c2.202-6.811 4.719-17.145 4.168-23.437a15.917 15.917 0 014.074 7.535 33.03 33.03 0 01-1.022 18.245c-3.445 10.586-10.68 18.12-17.601 19.064zM56.83 105.81a24.6 24.6 0 0119.346-16.657 21.454 21.454 0 00-2.5 1.777 36.334 36.334 0 00-10.9 16.815 36.333 36.333 0 00-1.07 20.007c.258.986.584 1.953.975 2.894a24.616 24.616 0 01-5.851-24.836zm46.809 15.21a24.564 24.564 0 01-19.425 16.657c5.662-3.507 10.727-10.161 13.464-18.591a36.174 36.174 0 001.085-19.992 24.679 24.679 0 00-.975-2.879 24.621 24.621 0 015.851 24.805zm39.229-56.42a1.028 1.028 0 00-.236-.283c-.252-.3-.488-.63-.755-.913l-2.233-2.422a8.003 8.003 0 00-5.584-2.58l1.069-2.123a5.546 5.546 0 00-.943-6.292 2.086 2.086 0 01-.488-2.218l1.793-4.482a5.49 5.49 0 00-.849-5.537l-1.573-1.856a4.092 4.092 0 01-.802-3.633l.629-2.376a5.963 5.963 0 00-3.539-7.11 5.081 5.081 0 01-3.068-3.585l-.582-2.627a4.472 4.472 0 00-2.658-3.146 4.34 4.34 0 00-2.674-.22l.409-1.715a6.02 6.02 0 00-2.815-6.48l-.944-.535a5.299 5.299 0 00-7.534 2.58l-.96 1.982a1.758 1.758 0 01-1.573 1.1 4.038 4.038 0 00-2.982 1.343 4.052 4.052 0 00-1.013 3.109l.441 4.436a5.323 5.323 0 01-1.117 3.822l-1.447 1.824a6.951 6.951 0 00.188 8.809l1.573 1.84a4.994 4.994 0 011.211 4.105l-.314 1.746a6.545 6.545 0 002.485 6.292l2.234 1.683a2.474 2.474 0 01.943 2.265 6.508 6.508 0 004.232 6.968 4.794 4.794 0 012.831 2.973l.456 1.21a8.017 8.017 0 00-3.901 5.459l-.802 4.231a25.562 25.562 0 004.546 19.913l24.065 32.575a1.564 1.564 0 001.259.645c.13.016.262.016.393 0a1.57 1.57 0 001.164-1.337l5.033-40.14a25.45 25.45 0 00-5.568-19.3zm-28.423-9.092a3.43 3.43 0 01-2.202-3.602 5.631 5.631 0 00-2.139-5.19l-2.233-1.683a3.428 3.428 0 01-1.29-3.32l.314-1.745a8.131 8.131 0 00-1.84-6.717l-1.573-1.84a3.774 3.774 0 01-.11-4.719l1.447-1.824a8.403 8.403 0 001.778-6.087l-.441-4.436a.916.916 0 01.448-.956c.109-.062.23-.1.354-.114a4.941 4.941 0 004.483-3.035l.818-1.982a2.19 2.19 0 011.306-1.227 2.135 2.135 0 011.777.173l.944.535a2.847 2.847 0 011.368 3.146l-.723 3.067v.141l-1.353 9.973a1.574 1.574 0 001.337 1.777h.22a1.574 1.574 0 001.573-1.368l1.038-7.63c.317-.044.621-.151.897-.314a1.289 1.289 0 012.044.771l.598 2.627a8.216 8.216 0 004.971 5.82 2.831 2.831 0 011.667 3.366l-.614 2.233a7.207 7.207 0 001.432 6.496l1.573 1.84a2.37 2.37 0 01.393 2.423l-1.793 4.483a5.269 5.269 0 001.069 5.552 2.357 2.357 0 01.409 2.706l-2.06 4.136-2.485.598 1.573-5.694a1.58 1.58 0 00-1.094-1.942 1.574 1.574 0 00-1.942 1.093l-1.227 4.325-.094-.188a48.015 48.015 0 01-4.829-17.413 1.58 1.58 0 00-1.707-1.439 1.579 1.579 0 00-1.439 1.707 53.69 53.69 0 00.629 4.718l-2.532-1.572a1.577 1.577 0 00-2.398 1.649c.087.408.333.766.683.993l5.222 3.382a52.603 52.603 0 003.539 9.437l1.023 2.06-3.587.85-.471-1.274a7.987 7.987 0 00-4.751-4.766zm26.331 64.191l-21.722-29.43a22.393 22.393 0 01-3.979-17.459l.802-4.23a4.827 4.827 0 013.665-3.807l10.79-2.548 2.359-.55c.36-.09.73-.131 1.101-.127a4.857 4.857 0 013.571 1.573l1.321 1.447-8.966 2.344a1.584 1.584 0 00-.776 2.824c.332.258.752.374 1.17.322.13.015.262.015.393 0l10.475-2.737a22.145 22.145 0 012.155 3.46l-4.718 1.259a1.583 1.583 0 00-1.332 1.152 1.587 1.587 0 001.725 1.993c.131.016.262.016.393 0l5.206-1.368c.403 1.252.698 2.536.881 3.838l-6.873 1.62a1.575 1.575 0 00.44 3.099c.131.015.263.015.393 0l6.292-1.668c.01.936-.042 1.871-.157 2.8l-.173 1.353-7.865 2.06a1.57 1.57 0 00-1.132 1.92 1.57 1.57 0 001.572 1.179c.131.015.263.015.394 0l6.527-1.84-3.932 31.521zm-24.978-86.243a1.571 1.571 0 012.685-1.112 1.576 1.576 0 01.341 1.714 1.57 1.57 0 01-2.565.51 1.573 1.573 0 01-.461-1.112zM65.764 68.532l.126-.346a59.99 59.99 0 001.116-35.894 10.366 10.366 0 00-8.116-7.456 10.57 10.57 0 00-6.81 1.039l-1.574.88a2.406 2.406 0 01-3.319-1.07 12.208 12.208 0 00-3.444-4.31l.424-5.268a5.757 5.757 0 012.596-4.404l.55-.362a4.97 4.97 0 002.124-3.288 4.892 4.892 0 00-7.692-4.718l-.472.33a16.454 16.454 0 00-6.858 12.583l-.125 2.501a12.583 12.583 0 00-10.775 10.366v.078a.927.927 0 01-.535.708.944.944 0 01-.88 0l-2.155-1.337a10.79 10.79 0 00-9.532-.834c-.853.331-1.657.776-2.391 1.322a1.573 1.573 0 101.809 2.406 7.407 7.407 0 011.699-.928 7.518 7.518 0 016.7.598l2.17 1.321a4.137 4.137 0 002.423.582 77.283 77.283 0 00-.802 11.608 1.573 1.573 0 003.146 0c-.068-5.003.38-10 1.337-14.91a9.438 9.438 0 0117.82-2.675c.158.3.337.59.536.865a.25.25 0 000 .11l1.856 9.28a1.573 1.573 0 001.572 1.275h.315a1.574 1.574 0 001.243-1.856l-1.321-6.59a5.552 5.552 0 003.381-.599l1.573-.88a7.314 7.314 0 014.719-.724 7.204 7.204 0 015.662 5.19 56.83 56.83 0 01-.943 34.023l-.126.346a10.696 10.696 0 01-8.871 7.094 7.943 7.943 0 00-1.715.377l.157-1.824a82.402 82.402 0 00-.456-18.089 1.585 1.585 0 00-2.83-.763 1.59 1.59 0 00-.316 1.172c.77 5.788.897 11.644.378 17.46l-.283 4.152a9.754 9.754 0 00-.834.975 5.188 5.188 0 01-3.334 2.17l-2.313.425c-2.033.372-4.13.148-6.04-.644l-.975-1.416a58.199 58.199 0 01-5.867-11.01 1.573 1.573 0 00-2.903-.061 1.574 1.574 0 00-.022 1.209 59.905 59.905 0 005.332 10.318 9.78 9.78 0 00-1.353.094l-2.14.3a9.595 9.595 0 01-8.933-3.618A73.393 73.393 0 015.946 46.763 19.41 19.41 0 015.52 42.5a1.573 1.573 0 00-3.146 0c-.028 1.676.14 3.35.503 4.986a76.49 76.49 0 0014.157 30.295 12.742 12.742 0 0011.86 4.813l2.154-.299a6.528 6.528 0 013.665.52 13.717 13.717 0 008.274 1.022l2.312-.425a8.352 8.352 0 005.316-3.366 5.24 5.24 0 013.697-2.155 13.858 13.858 0 0011.45-9.359zM43.082 6.166l.472-.33a1.762 1.762 0 012.407.346 1.777 1.777 0 01.346 1.368 1.81 1.81 0 01-.771 1.164L45 9.076a8.919 8.919 0 00-3.995 6.779l-.315 3.728a12.204 12.204 0 00-3.287-.865l.126-2.344a13.384 13.384 0 015.552-10.208zm-17.71 46.527a1.573 1.573 0 11-3.146 0 1.573 1.573 0 013.145 0zm.125 7.534a1.572 1.572 0 110 3.144 1.572 1.572 0 010-3.144zm22.32-13.04a1.573 1.573 0 113.146 0 1.573 1.573 0 01-3.146 0zm-13.48 55.053a2.326 2.326 0 00-.283-.142 4.624 4.624 0 001.18-3.004 4.719 4.719 0 00-4.594-4.719h-1.683a9.296 9.296 0 00-8.666 5.427 9.249 9.249 0 00-5.836-1.337 9.688 9.688 0 00-5.615 2.721l-.315.314a4.722 4.722 0 00.236 6.815 4.718 4.718 0 002.25 1.113l-.284.503a17.427 17.427 0 00-1.054 13.433 17.603 17.603 0 0020.532 11.788 17.607 17.607 0 0012.625-10.813 17.6 17.6 0 00-8.493-22.099zm-5.458-4.83h1.683c.411.015.801.19 1.085.488.289.3.447.701.44 1.117a1.573 1.573 0 01-.503 1.101c-.3.289-.7.447-1.117.441h-1.132a17.65 17.65 0 00-5.962 0 6.164 6.164 0 015.506-3.146zm-7 6.764a14.285 14.285 0 013.744-.692l-.708 2.234a3.465 3.465 0 01-2.076 2.186 3.425 3.425 0 01-2.108.126 3.873 3.873 0 01-1.856-1.07l-.818-.865a13.805 13.805 0 013.822-1.919zm-11.183-.519l.314-.299a6.589 6.589 0 013.76-1.871 6.154 6.154 0 013.586.77 17.323 17.323 0 00-3.634 2.438 2.96 2.96 0 00-1.32.724l-.536.503a1.572 1.572 0 01-2.17-2.265zm20.117 28.014a14.452 14.452 0 01-16.713-5.932 14.455 14.455 0 011.613-17.662l.913.96a7.063 7.063 0 003.366 1.997 6.944 6.944 0 001.573.189 6.452 6.452 0 002.375-.44 6.59 6.59 0 003.932-4.169l.96-2.973a14.46 14.46 0 0111.834 13.249 14.454 14.454 0 01-9.947 14.718l.094.063zm6.292-17.302a11.31 11.31 0 01-7.22 14.313 1.555 1.555 0 01-.472 0 1.591 1.591 0 11-.487-3.146 8.18 8.18 0 005.238-10.302 1.575 1.575 0 011.617-2.145 1.566 1.566 0 011.094.609c.13.171.225.367.277.576l-.047.095zM79.26 41.053a1.576 1.576 0 00-1.809 2.58 6.291 6.291 0 012.674 5.222 5.944 5.944 0 00-3.035 4.719l-.142 2.154a9.767 9.767 0 006.764 10.004h.204a29.886 29.886 0 009.249 1.463 30.405 30.405 0 007.597-.975 3.303 3.303 0 00.645-6.15l-6.512-3.24a17.602 17.602 0 01-6.905-6.15 5.851 5.851 0 00-4.719-2.69 9.437 9.437 0 00-4.01-6.937zm6.087 11.467a20.715 20.715 0 008.148 7.25l6.496 3.241a.16.16 0 01.079.057.16.16 0 010 .185.16.16 0 01-.079.057 26.992 26.992 0 01-15.052-.393h-.205a6.67 6.67 0 01-4.609-6.795l.095-2.281a2.785 2.785 0 015.127-1.321zm43.57 77.073a30.13 30.13 0 00-6.402-15.604 3.3 3.3 0 00-5.882 1.919l-.236 7.251a17.59 17.59 0 01-2.831 8.809 5.948 5.948 0 00-.519 5.442 9.43 9.43 0 00-4.845 6.496 1.57 1.57 0 001.243 1.84h.298a1.572 1.572 0 001.573-1.258 6.286 6.286 0 013.587-4.498 5.884 5.884 0 003.554 1.211 6.307 6.307 0 002.045-.362l2.029-.849a9.834 9.834 0 006.449-10.209l-.063-.188zm-7.455 7.502l-2.045.74a2.77 2.77 0 01-3.73-2.393 2.799 2.799 0 01.442-1.744 20.844 20.844 0 003.414-10.397l.314-7.251a.142.142 0 01.11-.142.12.12 0 01.055-.015c.02 0 .039.006.055.015a27.11 27.11 0 015.757 14.015v.204a6.653 6.653 0 01-4.372 6.968zM79.637 31.065c.823.21 1.667.321 2.516.33a5.19 5.19 0 003.823-1.384c3.051-3.051.44-9.532-1.935-11.891a7.03 7.03 0 00-9.957 0 7.047 7.047 0 000 9.957 12.755 12.755 0 005.553 2.988zm-3.335-10.727a3.932 3.932 0 015.521 0c1.809 1.809 3.146 6.197 1.935 7.455a3.852 3.852 0 01-3.335.22 9.958 9.958 0 01-4.12-2.154 3.932 3.932 0 010-5.521zM3.445 35.83a1.573 1.573 0 113.146 0 1.573 1.573 0 01-3.146 0z" fill="url(#paint0_linear_703_5016)"/><defs><linearGradient id="paint0_linear_703_5016" x1="127" y1="59" x2="20" y2="114" gradientUnits="userSpaceOnUse"><stop stop-color="#19B8AE"/><stop offset="1" stop-color="#0D899F"/></linearGradient></defs></svg>