<svg width="133" height="133" fill="none" xmlns="http://www.w3.org/2000/svg"><g clip-path="url(#clip0_798_10442)"><path d="M119.713 90.692l7.738 4.49v22.21l-19.124 11.096-19.123-11.096v-22.21l19.123-11.097 8.01 4.648 1.959-3.376-9.969-5.784-21.075 12.229-19.124-11.097V56.247l-9.073-5.265-1.959 3.376 7.13 4.137v22.21L45.1 91.802 25.978 80.705v-22.21l19.123-11.097 8.62 5.002 1.958-3.376-8.626-5.006V19.562L24.027 6.2 1 19.562v11.193h3.903v-8.947l19.124-11.096L43.15 21.808V44.02L24.027 55.115 4.903 44.019v-9.362H1v11.609l21.076 12.229v22.21L1 92.935v26.704l8.782 5.095 1.959-3.375-6.838-3.967v-22.21l19.124-11.097L43.15 95.182v22.21l-19.123 11.096-8.91-5.17-1.959 3.376L24.027 133 45.1 120.771l8.54 4.956 1.959-3.376-8.547-4.96v-22.21l19.124-11.096L85.3 95.182v22.209l-19.124 11.097-7.202-4.179-1.958 3.376 9.16 5.315 21.075-12.229L108.327 133l23.027-13.361V92.934l-9.682-5.618-1.959 3.376z" fill="url(#paint0_linear_798_10442)"/><path d="M64.616 34.084c4.465 0 8.318-2.662 10.062-6.48l9.018 2.155a16.36 16.36 0 00-.216 2.635c0 5.622 2.868 10.586 7.218 13.508L87.6 50.085a11.006 11.006 0 00-3.73-.65c-6.097 0-11.057 4.962-11.057 11.059 0 6.097 4.96 11.057 11.057 11.057 6.098 0 11.059-4.96 11.059-11.057 0-3.382-1.529-6.413-3.927-8.442l3.228-4.36c1.722.622 3.578.963 5.512.963 8.966 0 16.262-7.294 16.262-16.261 0-3.158-.908-6.106-2.472-8.603l3.61-3.296a10.988 10.988 0 005.757 1.62c6.097 0 11.057-4.96 11.057-11.057S128.995 0 122.898 0C116.8 0 111.84 4.96 111.84 11.058a11 11 0 002.37 6.828l-3.134 2.862a16.208 16.208 0 00-11.335-4.616c-6.7 0-12.467 4.074-14.953 9.876l-9.146-2.187c.02-.263.032-.527.032-.794 0-6.098-4.96-11.059-11.058-11.059-6.097 0-11.058 4.961-11.058 11.059 0 6.097 4.96 11.057 11.058 11.057zm58.282-30.181c3.945 0 7.155 3.21 7.155 7.155a7.163 7.163 0 01-7.155 7.155c-3.946 0-7.156-3.21-7.156-7.155 0-3.945 3.21-7.155 7.156-7.155zm-31.873 56.59a7.164 7.164 0 01-7.156 7.156c-3.945 0-7.154-3.21-7.154-7.155 0-3.945 3.21-7.156 7.154-7.156a7.163 7.163 0 017.156 7.156zm8.716-40.459c6.814 0 12.359 5.545 12.359 12.36 0 6.813-5.545 12.358-12.359 12.358s-12.359-5.545-12.359-12.358c0-6.815 5.545-12.36 12.36-12.36zm-35.125-4.163c3.945 0 7.155 3.21 7.155 7.156a7.163 7.163 0 01-7.155 7.154c-3.946 0-7.155-3.209-7.155-7.154s3.209-7.156 7.155-7.156z" fill="url(#paint1_linear_798_10442)"/><path d="M80.426 115.707l-1.959-3.376-12.29 7.133-5.539-3.215-1.959 3.376 7.498 4.35 14.25-8.268z" fill="url(#paint2_linear_798_10442)"/><path d="M51.925 115.711l1.959-3.376 3.376 1.96-1.96 3.375-3.375-1.959z" fill="url(#paint3_linear_798_10442)"/><path d="M123.548 114.02V97.43l-7.49-4.347-1.958 3.376 5.545 3.218v14.343h3.903z" fill="url(#paint4_linear_798_10442)"/><path d="M107.348 92.549l1.958-3.376 3.376 1.96-1.959 3.374-3.375-1.958z" fill="url(#paint5_linear_798_10442)"/><path d="M9.773 115.71l1.96-3.375 6.517 3.782-1.958 3.376-6.519-3.783z" fill="url(#paint6_linear_798_10442)"/><path d="M19.667 121.453l1.959-3.375 3.376 1.958-1.96 3.376-3.375-1.959z" fill="url(#paint7_linear_798_10442)"/><path d="M8.805 36.745h3.904v3.902H8.805v-3.902z" fill="url(#paint8_linear_798_10442)"/><path d="M8.805 25.18h3.904v7.661H8.805V25.18z" fill="url(#paint9_linear_798_10442)"/><path d="M44.121 55.859l1.96-3.376 3.375 1.958-1.959 3.376-3.376-1.958z" fill="url(#paint10_linear_798_10442)"/><path d="M60.323 77.333v-16.59l-7.49-4.346-1.959 3.376 5.545 3.217v14.343h3.904z" fill="url(#paint11_linear_798_10442)"/><path d="M104.294 32.394h3.903c0-4.664-3.793-8.457-8.456-8.457v3.903a4.559 4.559 0 014.553 4.554z" fill="url(#paint12_linear_798_10442)"/></g><defs><linearGradient id="paint0_linear_798_10442" x1="114.29" y1="51.462" x2="17.005" y2="101.445" gradientUnits="userSpaceOnUse"><stop stop-color="#19B8AE"/><stop offset="1" stop-color="#0D899F"/></linearGradient><linearGradient id="paint1_linear_798_10442" x1="114.29" y1="51.462" x2="17.005" y2="101.445" gradientUnits="userSpaceOnUse"><stop stop-color="#19B8AE"/><stop offset="1" stop-color="#0D899F"/></linearGradient><linearGradient id="paint2_linear_798_10442" x1="114.29" y1="51.462" x2="17.005" y2="101.445" gradientUnits="userSpaceOnUse"><stop stop-color="#19B8AE"/><stop offset="1" stop-color="#0D899F"/></linearGradient><linearGradient id="paint3_linear_798_10442" x1="114.29" y1="51.462" x2="17.005" y2="101.445" gradientUnits="userSpaceOnUse"><stop stop-color="#19B8AE"/><stop offset="1" stop-color="#0D899F"/></linearGradient><linearGradient id="paint4_linear_798_10442" x1="114.29" y1="51.462" x2="17.005" y2="101.445" gradientUnits="userSpaceOnUse"><stop stop-color="#19B8AE"/><stop offset="1" stop-color="#0D899F"/></linearGradient><linearGradient id="paint5_linear_798_10442" x1="114.29" y1="51.462" x2="17.005" y2="101.445" gradientUnits="userSpaceOnUse"><stop stop-color="#19B8AE"/><stop offset="1" stop-color="#0D899F"/></linearGradient><linearGradient id="paint6_linear_798_10442" x1="114.29" y1="51.462" x2="17.005" y2="101.445" gradientUnits="userSpaceOnUse"><stop stop-color="#19B8AE"/><stop offset="1" stop-color="#0D899F"/></linearGradient><linearGradient id="paint7_linear_798_10442" x1="114.29" y1="51.462" x2="17.005" y2="101.445" gradientUnits="userSpaceOnUse"><stop stop-color="#19B8AE"/><stop offset="1" stop-color="#0D899F"/></linearGradient><linearGradient id="paint8_linear_798_10442" x1="114.29" y1="51.462" x2="17.005" y2="101.445" gradientUnits="userSpaceOnUse"><stop stop-color="#19B8AE"/><stop offset="1" stop-color="#0D899F"/></linearGradient><linearGradient id="paint9_linear_798_10442" x1="114.29" y1="51.462" x2="17.005" y2="101.445" gradientUnits="userSpaceOnUse"><stop stop-color="#19B8AE"/><stop offset="1" stop-color="#0D899F"/></linearGradient><linearGradient id="paint10_linear_798_10442" x1="114.29" y1="51.462" x2="17.005" y2="101.445" gradientUnits="userSpaceOnUse"><stop stop-color="#19B8AE"/><stop offset="1" stop-color="#0D899F"/></linearGradient><linearGradient id="paint11_linear_798_10442" x1="114.29" y1="51.462" x2="17.005" y2="101.445" gradientUnits="userSpaceOnUse"><stop stop-color="#19B8AE"/><stop offset="1" stop-color="#0D899F"/></linearGradient><linearGradient id="paint12_linear_798_10442" x1="114.29" y1="51.462" x2="17.005" y2="101.445" gradientUnits="userSpaceOnUse"><stop stop-color="#19B8AE"/><stop offset="1" stop-color="#0D899F"/></linearGradient><clipPath id="clip0_798_10442"><path fill="#fff" d="M0 0h133v133H0z"/></clipPath></defs></svg>