<svg width="22" height="22" fill="none" xmlns="http://www.w3.org/2000/svg"><path d="M.621 21.438l1.408-5.172a10.363 10.363 0 01-1.412-5.239c0-5.75 4.661-10.41 10.411-10.41s10.411 4.66 10.411 10.41-4.66 10.411-10.41 10.411a10.362 10.362 0 01-5.238-1.41l-5.17 1.41zm6.65-15.296a1 1 0 00-.386.104 1.346 1.346 0 00-.306.238c-.125.117-.196.22-.272.318a2.841 2.841 0 00-.588 1.747c.002.51.135 1.007.343 1.471.426.94 1.127 1.934 2.052 2.855.223.222.44.445.675.652a9.836 9.836 0 003.998 2.13l.592.09c.193.01.385-.004.579-.013.303-.016.6-.098.867-.24.136-.07.27-.147.399-.23 0 0 .044-.029.13-.093.14-.104.226-.166.344-.3.098-.113.16-.195.218-.315.081-.17.162-.493.196-.763.025-.206.018-.318.014-.388-.004-.111-.096-.227-.197-.276l-.606-.272s-.906-.394-1.459-.646a.519.519 0 00-.184-.043.502.502 0 00-.394.132v-.002c-.005 0-.075.06-.827.972a.365.365 0 01-.383.135 1.474 1.474 0 01-.2-.069c-.128-.054-.173-.075-.262-.113l-.005-.002a6.258 6.258 0 01-1.634-1.041c-.132-.115-.253-.24-.378-.36a6.551 6.551 0 01-1.062-1.32l-.062-.1a.96.96 0 01-.106-.213c-.04-.153.064-.276.064-.276s.253-.277.37-.427c.098-.124.19-.254.274-.388.123-.198.161-.4.097-.558a86.692 86.692 0 00-.904-2.125c-.061-.14-.243-.24-.409-.26a4.604 4.604 0 00-.169-.016 3.523 3.523 0 00-.42.005z" fill="#fff"/></svg>